<svg width="211" height="109" viewBox="0 0 211 109" fill="none" xmlns="http://www.w3.org/2000/svg">
<g clip-path="url(#clip0_108_4135)">
<path d="M0 31.5273H24.4403V37.9246H7.08515V44.5554H22.3568V50.9527H7.08515V57.817H24.6717V64.2143H0V31.5273Z" fill="white"/>
<path d="M28.6129 51.7376C28.6129 44.5902 34.0284 38.7095 41.6187 38.7095C46.2906 38.7095 49.1598 40.4857 51.4747 43.097L47.3569 47.3005C45.8277 45.8569 44.3475 44.8308 41.5696 44.8308C38.0551 44.8308 35.5507 47.9587 35.5507 51.7376C35.5507 55.5165 38.0059 58.6444 41.8431 58.6444C44.2072 58.6444 45.8277 57.6183 47.5393 55.9836L51.6571 60.1871C49.251 62.848 46.473 64.7657 41.5204 64.7657C34.0705 64.7657 28.6059 58.977 28.6059 51.7376H28.6129Z" fill="white"/>
<path d="M54.3581 51.7376C54.3581 44.5477 60.0963 38.7095 67.8269 38.7095C75.5574 38.7095 81.2045 44.4486 81.2045 51.7376C81.2045 59.0266 75.4662 64.7657 67.7357 64.7657C60.0051 64.7657 54.3581 59.0195 54.3581 51.7376ZM74.2596 51.7376C74.2596 48.0507 71.622 44.8308 67.7357 44.8308C63.8494 44.8308 61.3029 47.9587 61.3029 51.7376C61.3029 55.5165 63.9406 58.6444 67.8269 58.6444C71.7132 58.6444 74.2596 55.5165 74.2596 51.7376Z" fill="white"/>
<path d="M80.5474 30.1752H90.3613L96.1978 49.7351L102.658 30.0762H110.656L117.123 49.7351L122.96 30.1752H132.584L121.382 64.2211H113.294L106.545 44.7602L99.8391 64.2211H91.7503L80.5474 30.1752Z" fill="white"/>
<path d="M136.468 39.9272H145.805V63.9808H136.468V39.9272Z" fill="white"/>
<path d="M149.399 58.9631L154.568 52.7357C157.873 55.3965 161.556 56.7906 165.435 56.7906C167.925 56.7906 169.265 55.9201 169.265 54.3774C169.265 52.9763 168.164 52.2049 163.618 51.1434C156.483 49.5016 150.977 47.4706 150.977 40.4223C150.977 34.1453 155.908 29.6021 163.955 29.6021C169.651 29.6021 174.105 31.1448 177.74 34.0957L173.095 40.7124C170.029 38.5399 166.677 37.3793 163.709 37.3793C161.458 37.3793 160.363 38.3417 160.363 39.6509C160.363 41.1936 161.513 41.873 166.157 42.9345C173.867 44.6258 178.651 47.138 178.651 53.5565C178.651 60.4634 173.243 64.5678 165.106 64.5678C159.171 64.5678 153.516 62.6854 149.406 58.9631H149.399Z" fill="white"/>
<path d="M183.161 30.1759H210.112V38.1443H192.35V43.2607H208.435V50.6487H192.35V56.0058H210.351V63.9741H183.161V30.1689V30.1759Z" fill="white"/>
<path fill-rule="evenodd" clip-rule="evenodd" d="M158.549 0.781688L156.919 2.12306L156.489 0.0447331C157.259 -0.117053 158.053 0.167143 158.549 0.781688ZM141.941 32.8004C140.006 33.6354 140.006 33.6343 140.005 33.633L140.004 33.6305L140.002 33.6249L139.996 33.6118L139.982 33.578C139.973 33.5521 139.96 33.5194 139.945 33.48C139.915 33.4013 139.876 33.2957 139.833 33.164C139.745 32.9004 139.634 32.5318 139.522 32.0624C139.298 31.1233 139.068 29.7821 139.005 28.0749C138.878 24.6506 139.42 19.8026 141.949 13.8228C141.955 13.8068 141.962 13.791 141.97 13.7752C144.59 7.97676 148.121 4.54731 151.068 2.56551C152.533 1.57947 153.843 0.959285 154.806 0.581152C155.289 0.392007 155.684 0.263017 155.973 0.178831C156.117 0.136722 156.234 0.105768 156.321 0.0840659C156.363 0.0732128 156.4 0.0646673 156.428 0.0581923L156.465 0.0500009L156.478 0.0470127L156.484 0.0457857L156.486 0.0452379C156.487 0.0449818 156.489 0.0447331 156.919 2.12306C158.549 0.781688 158.55 0.7828 158.551 0.78394L158.553 0.786362L158.558 0.79171L158.568 0.804428C158.575 0.813804 158.584 0.824974 158.594 0.837931C158.614 0.863843 158.639 0.896918 158.669 0.937089C158.728 1.01741 158.805 1.12624 158.896 1.26305C159.079 1.5365 159.316 1.9229 159.572 2.4179C160.085 3.40758 160.677 4.83734 161.046 6.66838C161.795 10.3712 161.607 15.5545 158.325 21.8503L158.324 21.851C154.96 28.2988 151.026 31.6128 147.776 33.2887C146.164 34.12 144.753 34.5309 143.714 34.7325C143.195 34.8332 142.769 34.8816 142.457 34.9044C142.3 34.9158 142.173 34.9208 142.076 34.9227C142.027 34.9237 141.987 34.9238 141.954 34.9237C141.937 34.9236 141.923 34.9234 141.91 34.9232L141.894 34.9228L141.887 34.9227L141.883 34.9226C141.882 34.9225 141.88 34.9225 141.941 32.8004ZM141.941 32.8004L140.006 33.6354C140.329 34.396 141.06 34.8983 141.88 34.9225L141.941 32.8004ZM143.481 30.4349C144.121 30.2678 144.935 29.9855 145.861 29.5079C148.282 28.2594 151.609 25.6042 154.6 19.8731C157.435 14.4361 157.475 10.2502 156.923 7.51691C156.679 6.31435 156.315 5.36136 155.989 4.67907C155.303 4.97186 154.407 5.42296 153.402 6.09821C151.058 7.67528 148.078 10.5058 145.81 15.5129C143.535 20.9008 143.107 25.1167 143.211 27.9158C143.25 28.944 143.36 29.7878 143.481 30.4349Z" fill="#D80027"/>
<path fill-rule="evenodd" clip-rule="evenodd" d="M131.57 4.45381C134.253 5.28953 137.299 7.46911 139.788 12.3129C140.323 13.3538 139.92 14.6351 138.888 15.1748C137.856 15.7144 136.586 15.3081 136.051 14.2671C134.002 10.2792 131.779 8.96294 130.328 8.5107C129.877 8.37016 129.469 8.30297 129.122 8.27647C129.077 8.68306 129.05 9.1772 129.067 9.74541C129.123 11.5557 129.635 14.1755 131.599 17.1757C133.207 19.4855 134.796 21.0103 136.132 22.0062C137.067 22.7027 137.265 24.032 136.575 24.9752C135.884 25.9183 134.567 26.1182 133.632 25.4217C131.914 24.1422 130.002 22.2769 128.135 19.5892C128.125 19.5741 128.115 19.5589 128.105 19.5435C125.662 15.8234 124.938 12.4155 124.86 9.87648C124.822 8.6157 124.942 7.58297 125.08 6.84542C125.15 6.47643 125.223 6.18024 125.282 5.96493C125.313 5.85722 125.34 5.76957 125.361 5.70298C125.372 5.66967 125.382 5.64161 125.39 5.61892L125.399 5.58891L125.403 5.57695L125.405 5.57173L125.406 5.56932C125.407 5.56816 125.407 5.56703 127.383 6.29827C126.77 4.26711 126.772 4.26663 126.774 4.26615L126.777 4.26516L126.784 4.26306L126.8 4.25839C126.811 4.25509 126.824 4.25141 126.839 4.24739C126.868 4.23936 126.902 4.23 126.943 4.21974C127.024 4.19923 127.13 4.17503 127.258 4.15061C127.513 4.10184 127.858 4.05172 128.278 4.02886C129.117 3.98312 130.263 4.04624 131.57 4.45381ZM127.383 6.29827L126.77 4.26711C126.14 4.46079 125.634 4.94203 125.407 5.56703L127.383 6.29827Z" fill="#D80027"/>
<path d="M51.3615 74.1737C51.5059 74.4467 51.5371 74.7689 51.4552 75.1403C51.3758 75.6038 51.339 75.9509 51.345 76.1815L51.298 77.0134C51.2582 77.2451 51.1963 77.5006 51.112 77.7797C51.0278 78.0588 51.0115 78.313 51.0633 78.5424C50.8971 79.1928 50.8183 79.6794 50.8266 80.0022C50.7424 80.2813 50.6401 80.7455 50.5197 81.3947C50.3981 81.9978 50.2285 82.5099 50.0107 82.931C49.9698 83.1167 49.8843 83.3497 49.7544 83.63C49.6689 83.863 49.6058 84.0723 49.5648 84.258C49.5672 84.3502 49.4794 84.4909 49.3013 84.6802C49.1677 84.8222 49.1034 84.9854 49.1082 85.1699C48.8579 86.0994 48.6015 86.7984 48.3392 87.2668C48.1647 87.5944 47.9499 88.1308 47.6948 88.8758L47.2418 89.9261C47.1094 90.1142 46.9999 90.3017 46.9132 90.4885C46.8711 90.6281 46.8062 90.7682 46.7184 90.909C46.5908 91.2815 46.3736 91.7257 46.0668 92.2414L45.3287 92.8838C45.2385 92.9324 45.1254 92.9815 44.9895 93.0312C44.8535 93.081 44.7175 93.1307 44.5815 93.1805L44.3074 93.1877C44.2147 93.144 44.0992 93.1009 43.9609 93.0584C43.8682 93.0147 43.7756 92.971 43.683 92.9273C43.4521 92.8411 43.2476 92.8927 43.0694 93.082C42.8902 93.2251 42.7061 93.1839 42.5173 92.9581L42.3748 92.7542C42.2798 92.6183 42.1878 92.5976 42.0988 92.6923L41.9634 92.7651C41.9165 92.7202 41.7782 92.6777 41.5484 92.6376C41.3174 92.5514 41.1539 92.4173 41.0576 92.2353C41.0084 92.0981 40.8917 92.0089 40.7076 91.9676C40.3852 91.8839 40.061 91.7309 39.735 91.5088C39.4548 91.2855 39.2683 91.1519 39.1758 91.1082C39.1264 90.9711 39.0079 90.8127 38.8203 90.6331C38.6783 90.4523 38.5822 90.2702 38.5316 90.087L39.0731 89.7958C39.2078 89.6999 39.2734 89.5828 39.2697 89.4445C39.2217 89.3535 39.1958 89.2388 39.1922 89.1004C39.0479 88.8274 38.9504 88.5992 38.9 88.416C38.71 88.1441 38.5897 87.9166 38.5392 87.7333C38.5837 87.686 38.6048 87.6162 38.6024 87.524C38.5987 87.3856 38.5495 87.2485 38.4545 87.1126C38.4051 86.9754 38.4022 86.8601 38.4455 86.7667L38.4401 86.5592C38.4293 86.1442 38.3283 85.7777 38.1371 85.4597L38.0397 84.3547C37.8967 84.1278 37.7788 83.9925 37.6862 83.9488L37.6176 83.9506C37.395 84.1872 37.2639 84.4214 37.2241 84.6532C37.2265 84.7454 37.1645 85.0008 37.0382 85.4195C36.996 85.559 36.9064 85.6306 36.7693 85.6343C36.7236 85.6355 36.6779 85.6367 36.6321 85.6379C36.5864 85.6391 36.5413 85.6634 36.4968 85.7107C36.3669 85.991 36.1936 86.3647 35.977 86.8319C35.7604 87.2991 35.542 87.6971 35.3218 88.026C35.2821 88.2577 35.1744 88.5144 34.9987 88.7959C34.8687 89.0762 34.7605 89.3098 34.6738 89.4967C34.5463 89.8692 34.3935 90.1501 34.2154 90.3394C34.1709 90.3867 34.0379 90.5518 33.8166 90.8345C33.6397 91.0699 33.5326 91.3496 33.4953 91.6736L32.97 92.5873L32.6994 92.7329C32.6103 92.8276 32.4756 92.9234 32.2951 93.0205C32.1134 93.0714 31.9775 93.1212 31.8873 93.1697C31.7513 93.2194 31.7315 93.3353 31.8277 93.5174C31.8746 93.5623 31.9444 93.6066 32.037 93.6503C32.1296 93.694 32.1772 93.7619 32.1796 93.8542L32.1831 93.9925C32.0459 93.9961 31.8865 94.0234 31.7049 94.0744C31.522 94.0792 31.3844 94.0598 31.2918 94.0161C31.2448 93.9712 31.1991 93.9724 31.1546 94.0197C31.1089 94.0209 31.0632 94.0221 31.0175 94.0233L30.8731 93.7502C30.8696 93.6119 30.822 93.5439 30.7306 93.5464C30.5477 93.5512 30.2289 93.6057 29.7742 93.7101C29.6371 93.7137 29.5216 93.6706 29.4277 93.5808C29.334 93.491 29.0531 93.2446 28.5852 92.8416C28.4469 92.7991 28.3741 92.6395 28.3669 92.3628C28.3176 92.2257 28.2238 92.1359 28.0855 92.0934C27.9472 92.0509 27.8551 92.0303 27.8094 92.0315L27.3097 91.2833C27.2158 91.1934 27.1232 91.1497 27.0318 91.1522C26.9403 91.1546 26.8718 91.1564 26.8261 91.1576C26.7803 91.1588 26.6185 91.0939 26.3407 90.9628L25.6389 90.3583C25.4512 90.1787 25.3316 89.9742 25.2798 89.7448L25.2762 89.6065C25.2751 89.5604 25.251 89.5149 25.2041 89.47C25.156 89.3789 25.1542 89.3098 25.1987 89.2624C25.1975 89.2163 25.2191 89.1696 25.2637 89.1223C25.354 89.0738 25.3985 89.0264 25.3973 88.9803C25.4406 88.8869 25.4381 88.7946 25.39 88.7036C25.342 88.6126 25.3167 88.521 25.3143 88.4288C25.3119 88.3365 25.2626 88.1994 25.1664 88.0173C25.1147 87.788 25.1322 87.5799 25.2188 87.393C25.2634 87.3457 25.2832 87.2298 25.2784 87.0453C25.2759 86.9531 25.2508 86.8615 25.2026 86.7704C25.1545 86.6794 25.1292 86.5878 25.1269 86.4956L25.1775 85.802C25.2053 85.1091 25.1885 84.4635 25.1273 83.8652C25.12 83.5885 25.1827 83.3561 25.315 83.1681C25.404 83.0734 25.4473 82.98 25.445 82.8877L25.3965 81.0201C25.5264 80.7398 25.5848 80.346 25.5716 79.8387C25.6042 79.3303 25.6631 78.9595 25.7486 78.7266C25.7005 78.6355 25.6746 78.5209 25.6711 78.3825C25.6675 78.2442 25.6867 78.1052 25.7289 77.9657C25.7698 77.78 25.7884 77.618 25.7849 77.4797C25.7801 77.2952 25.7982 77.1101 25.8391 76.9245C25.8788 76.6927 25.9203 76.5301 25.9636 76.4366C25.9155 76.3456 25.8897 76.2309 25.8861 76.0926C25.8825 75.9542 25.9017 75.8153 25.9439 75.6757C25.986 75.5362 26.0046 75.3742 25.9999 75.1897L25.9963 75.0514C25.9855 74.6364 26 74.3129 26.0397 74.0812C26.0362 73.9428 26.0777 73.7802 26.1643 73.5933L26.2257 73.3148C26.2173 72.992 26.2505 72.5066 26.3251 71.8586C26.4478 71.3016 26.5021 70.7464 26.4877 70.193C26.4746 69.6858 26.5107 69.3157 26.5961 69.0827C26.6347 68.8048 26.648 68.4353 26.636 67.9741C26.6084 66.9135 26.6109 66.1289 26.6435 65.6204L26.7067 65.4111C26.7957 65.3165 26.8878 65.3371 26.9827 65.473C27.4026 65.785 27.6606 66.032 27.7567 66.214C27.8049 66.305 27.853 66.3961 27.9011 66.4871C27.9492 66.5781 28.0201 66.6685 28.114 66.7583C28.2078 66.8481 28.3016 66.938 28.3954 67.0278C28.5338 67.0703 28.6264 67.114 28.6733 67.1589C28.7672 67.2487 28.8615 67.3616 28.9566 67.4975C29.0961 67.5861 29.2584 67.6741 29.4437 67.7615C29.5376 67.8513 29.6543 67.9405 29.7937 68.0291C29.9321 68.0716 30.0482 68.1378 30.142 68.2276C30.2358 68.3174 30.3789 68.5444 30.5714 68.9084C30.7602 69.1342 30.8594 69.4315 30.869 69.8004C30.8725 69.9388 30.899 70.0765 30.9483 70.2136C31.0433 70.3496 31.0932 70.5098 31.0981 70.6942C31.1172 71.4321 31.1544 71.9848 31.2097 72.3525L31.2115 72.4217C31.2163 72.6062 31.1976 72.7682 31.1555 72.9077C31.1121 73.0012 31.0688 73.0946 31.0255 73.188C30.9822 73.2815 30.9635 73.4435 30.9695 73.6741L31.1211 74.2238C31.1306 74.5927 31.0945 74.9629 31.0126 75.3342C30.9765 75.7043 30.9633 76.0738 30.9728 76.4428C30.9812 76.7656 30.9462 77.1818 30.868 77.6915C30.8342 78.1538 30.7987 78.547 30.7613 78.871C30.7216 79.1028 30.7071 79.4262 30.7179 79.8412C30.7636 79.84 30.7877 79.8855 30.7901 79.9778C30.7936 80.1161 30.7738 80.232 30.7305 80.3254C30.6872 80.4189 30.6439 80.5123 30.6005 80.6058C30.4694 80.8399 30.3641 81.1888 30.2846 81.6524C30.2135 82.4388 30.1142 83.0182 29.9866 83.3907C29.9024 83.6698 29.8663 84.04 29.8783 84.5011C29.8795 84.5472 29.927 84.6152 30.0207 84.705L30.1561 84.6322L30.9521 83.5729C31.0411 83.4783 31.1999 83.4279 31.4285 83.4219L31.6413 83.6931C31.8289 83.8728 31.9438 83.8928 31.986 83.7532C32.0269 83.5676 32.1124 83.3346 32.2423 83.0543C32.418 82.7728 32.5256 82.5161 32.5654 82.2843C32.6075 82.1448 32.741 82.0028 32.966 81.8584C33.2355 81.6667 33.3672 81.4556 33.3613 81.225C33.3577 81.0867 33.3985 80.901 33.484 80.668C33.5694 80.435 33.611 80.2724 33.6086 80.1802L33.6736 80.04C33.8036 79.7597 33.8908 79.5959 33.9353 79.5486C34.1134 79.3593 34.2024 79.2647 34.2024 79.2647L34.1988 79.1263C34.1964 79.0341 34.2174 78.9643 34.262 78.917C34.3053 78.8235 34.3252 78.7077 34.3215 78.5693C34.3203 78.5232 34.2958 78.4546 34.2476 78.3636C34.244 78.2253 34.3324 78.1076 34.5129 78.0105C34.6489 77.9608 34.8035 77.749 34.9768 77.3753C35.2907 77.1363 35.443 76.8323 35.4334 76.4634C35.4274 76.2328 35.5135 76.0229 35.6915 75.8336C35.7805 75.7389 35.8004 75.623 35.7511 75.4859C35.7499 75.4398 35.7704 75.3469 35.8124 75.2074C35.9015 75.1128 35.9443 74.9963 35.9406 74.8579L36.067 74.4393L35.993 74.2336C36.0797 74.0467 36.1218 73.9071 36.1194 73.8149C36.1639 73.7676 36.1616 73.6753 36.1122 73.5382L36.0997 73.054C36.0901 72.6851 36.1075 72.477 36.152 72.4296C36.2749 71.8726 36.3531 71.363 36.3869 70.9006C36.4194 70.3922 36.405 69.8388 36.3438 69.2405C36.3414 69.1483 36.3149 69.0105 36.2645 68.8273C36.2596 68.6428 36.2764 68.4116 36.315 68.1337C36.3583 68.0403 36.4251 67.9693 36.5153 67.9208C36.6044 67.8261 36.6724 67.8013 36.7193 67.8462C36.9045 67.9336 37.0645 67.9294 37.1992 67.8335C37.3351 67.7838 37.4945 67.7565 37.6774 67.7517C37.8145 67.748 38.0215 67.7887 38.2982 67.8737C38.3439 67.8725 38.4125 67.8707 38.5039 67.8683C38.5953 67.8658 38.6878 67.9095 38.7817 67.9994C38.9237 68.1802 39.1377 68.4976 39.424 68.9515C39.7091 69.3593 40.0158 69.7203 40.3441 70.0347C40.4392 70.1706 40.5353 70.3526 40.6328 70.5808C40.7747 70.7616 40.8944 70.9661 40.9918 71.1943C41.0927 71.5608 41.1974 72.0656 41.3055 72.7088L41.3235 73.4006C41.3307 73.6772 41.3132 73.8854 41.271 74.0249L41.2747 74.1633L41.3142 75.685L41.433 77.62L41.3031 77.9004C41.2586 77.9477 41.2603 78.0168 41.3084 78.1079C41.4035 78.2438 41.4311 78.4277 41.3914 78.6594C41.3516 78.8912 41.3558 79.0526 41.404 79.1436C41.3173 79.3305 41.28 79.6545 41.292 80.1157L41.2809 82.331C41.2892 82.6538 41.2561 83.1392 41.1814 83.7872C41.0972 84.0663 41.0574 84.2981 41.0622 84.4826C41.0909 85.5893 41.1353 86.4188 41.1954 86.9709C41.2086 87.4782 41.3367 88.0055 41.5795 88.5528C41.582 88.6451 41.6758 88.7349 41.8611 88.8223C41.9548 88.9121 42.024 88.9333 42.0685 88.886C42.1575 88.7914 42.2905 88.6264 42.4674 88.391C42.6888 88.1082 42.8193 87.851 42.8591 87.6192C43.1706 87.2879 43.4529 86.7037 43.7055 85.8663C43.88 85.5387 44.0557 85.2572 44.2326 85.0218C44.4083 84.7403 44.5616 84.4824 44.6928 84.2482C44.8264 84.1062 44.8913 83.9661 44.8877 83.8278C44.8866 83.7816 44.8613 83.69 44.812 83.5529C44.8083 83.4145 44.8517 83.3211 44.942 83.2726C45.2126 83.127 45.4592 82.9359 45.6819 82.6993C45.7264 82.6519 45.8376 82.5336 46.0157 82.3443C46.1926 82.1089 46.2774 81.8529 46.2702 81.5762C46.269 81.5301 46.2907 81.4834 46.3352 81.4361C46.4242 81.3414 46.4916 81.2935 46.5373 81.2923C46.6709 81.1503 46.7581 80.9865 46.799 80.8008C46.8424 80.7074 46.8406 80.6382 46.7937 80.5933C46.7467 80.5484 46.677 80.5041 46.5843 80.4604L46.5157 80.4622L46.5717 79.9762C46.8401 79.7384 47.0146 79.4107 47.0952 78.9933C47.2697 78.6657 47.3966 78.2701 47.4761 77.8065C47.517 77.6208 47.6253 77.3872 47.8009 77.1057C47.9358 77.0099 47.934 76.9407 47.7956 76.8982C47.7487 76.8533 47.6789 76.809 47.5863 76.7653C47.5393 76.7204 47.5833 76.65 47.7181 76.5542C47.8997 76.5032 47.9875 76.3625 47.9816 76.1319C47.9804 76.0858 47.978 75.9935 47.9744 75.8552C48.0164 75.7156 47.9907 75.601 47.8968 75.5111C47.7537 75.2842 47.77 75.03 47.9457 74.7484L48.081 74.6757C48.1676 74.4888 48.1857 74.3037 48.1352 74.1205C48.0883 74.0756 48.0636 74.007 48.0613 73.9148C48.1912 73.6344 48.249 73.2176 48.2346 72.6642C48.2322 72.572 48.3201 72.4312 48.4981 72.242L48.6281 71.9616L48.4188 71.8287C48.2816 71.8324 48.2112 71.765 48.2077 71.6266C48.2041 71.4883 48.2233 71.3494 48.2655 71.2098C48.3521 71.0229 48.3708 70.8609 48.3215 70.7238C48.2734 70.6328 48.3395 70.5387 48.52 70.4417L48.5849 70.3015L48.4425 70.0976L48.2982 69.8246C48.297 69.7784 48.3631 69.6844 48.4966 69.5424C48.5411 69.4951 48.5405 69.4721 48.4948 69.4733C48.4937 69.4271 48.4703 69.4047 48.4245 69.4059C48.1936 69.3197 48.1454 69.2287 48.2802 69.1328C48.3669 68.946 48.3861 68.807 48.338 68.716L47.7733 68.1079C47.629 67.8349 47.5333 67.6759 47.4864 67.631L47.5514 67.4908C47.5478 67.3525 47.4516 67.1704 47.2628 66.9447C47.0739 66.7189 46.9777 66.5369 46.9741 66.3986L46.4094 65.7905C46.3613 65.6995 46.404 65.583 46.5375 65.441C46.6711 65.2991 46.762 65.2736 46.8101 65.3646C46.9496 65.4532 47.1824 65.6086 47.5083 65.8307C47.8788 66.0055 48.1591 66.2288 48.3491 66.5007C48.5368 66.6803 48.7231 66.8138 48.9084 66.9012C48.9541 66.9 49.0239 66.9443 49.1178 67.0341C49.2187 67.4006 49.413 67.8339 49.7003 68.3339C50.0323 68.7866 50.2945 69.195 50.4869 69.5591C50.5832 69.7411 50.6336 69.9244 50.6385 70.1088C50.6444 70.3394 50.6715 70.5002 50.7196 70.5912C50.7232 70.7296 50.7966 70.9122 50.9396 71.1392C51.0816 71.32 51.1544 71.4796 51.1579 71.6179C51.1652 71.8946 51.2204 72.2623 51.3239 72.7211L51.4032 73.1343C51.4981 73.2702 51.5024 73.4316 51.4158 73.6185C51.2834 73.8066 51.2653 73.9916 51.3615 74.1737ZM35.5148 74.3154L35.4462 74.3172L35.5131 74.2462L35.5148 74.3154ZM35.2693 75.4294L35.1989 75.362L35.2675 75.3602L35.2693 75.4294ZM32.9915 80.1965C32.9 80.1989 32.8525 80.1309 32.849 79.9926C32.9332 79.7135 33.0662 79.5485 33.2478 79.4975L33.3867 79.5631L33.4571 79.6304C33.415 79.77 33.3723 79.8865 33.329 79.9799C33.2844 80.0272 33.2399 80.0746 33.1954 80.1219C33.1533 80.2614 33.0853 80.2863 32.9915 80.1965ZM46.4472 80.464L46.5157 80.4622L46.5176 80.5314L46.449 80.5332L46.4472 80.464ZM46.3136 80.606C46.3124 80.5599 46.3576 80.5356 46.449 80.5332C46.4959 80.5781 46.4971 80.6242 46.4526 80.6715C46.4526 80.6715 46.4297 80.6721 46.384 80.6734C46.3395 80.7207 46.2944 80.7449 46.2487 80.7461C46.2475 80.7 46.2691 80.6533 46.3136 80.606ZM31.9662 82.9924C31.7881 83.1816 31.6311 83.3012 31.4952 83.3509C31.4832 82.8898 31.6565 82.516 32.015 82.2297L32.08 82.0895C32.1738 82.1793 32.2213 82.2473 32.2225 82.2934C32.2262 82.4317 32.1834 82.5482 32.0943 82.6429C32.051 82.7363 32.0084 82.8528 31.9662 82.9924ZM45.8225 82.834C45.867 82.7867 45.8436 82.7642 45.7523 82.7666L45.754 82.8358L45.8225 82.834ZM31.497 83.4201L31.4285 83.4219L31.4266 83.3527L31.4952 83.3509L31.497 83.4201ZM37.2763 86.6592C37.2786 86.7514 37.2581 86.8442 37.2148 86.9377C37.216 86.9838 37.1932 86.9844 37.1463 86.9395L37.0705 86.6646L37.1337 86.4553L37.2763 86.6592ZM37.7253 88.1009L37.7235 88.0317L37.7921 88.0299L37.7253 88.1009ZM37.6748 88.7944C37.6711 88.6561 37.715 88.5857 37.8065 88.5833C37.8534 88.6282 37.8787 88.7198 37.8822 88.8582L37.7469 88.931C37.7011 88.9322 37.6771 88.8867 37.6748 88.7944ZM38.0319 89.3388L38.1041 89.4753L38.0355 89.4771L38.0319 89.3388ZM38.4613 90.0196L38.4631 90.0888C38.4174 90.09 38.3716 90.0912 38.3259 90.0924C38.3247 90.0463 38.3465 89.9996 38.391 89.9522L38.4613 90.0196ZM38.5316 90.087C38.5329 90.1331 38.5106 90.1567 38.4649 90.1579L38.4631 90.0888L38.5316 90.087ZM27.8094 92.0315L27.8798 92.0988L27.8112 92.1006L27.8094 92.0315ZM27.6759 92.1734C27.6747 92.1273 27.6741 92.1043 27.6741 92.1043C27.7186 92.0569 27.7643 92.0557 27.8112 92.1006L27.8166 92.3082C27.7251 92.3106 27.6782 92.2657 27.6759 92.1734ZM27.8184 92.3773L27.8166 92.3082L27.8851 92.3063L27.8869 92.3755L27.8184 92.3773ZM27.9591 92.5121L27.8869 92.3755L28.0259 92.4411L27.9591 92.5121ZM64.2022 91.347L64.1337 91.3488C64.0879 91.35 64.0651 91.3506 64.0651 91.3506C64.0639 91.3045 64.0633 91.2814 64.0633 91.2814L63.8594 91.356C63.8149 91.4034 63.7012 91.4294 63.5183 91.4343C63.3812 91.4379 63.1965 91.3736 62.9643 91.2413C62.7322 91.1089 62.5247 91.0452 62.3418 91.05C61.8847 91.0621 61.5641 91.0475 61.3801 91.0062C60.8255 90.7901 60.3612 90.5255 59.9871 90.2124C59.8476 90.1238 59.6847 90.0127 59.4982 89.8792C59.3563 89.6984 59.1921 89.5412 59.0056 89.4077C59.0056 89.4077 58.9353 89.3403 58.7945 89.2056C58.7031 89.208 58.6556 89.1401 58.6521 89.0017C58.5558 88.8197 58.3435 88.5715 58.0151 88.2571C57.7324 87.9416 57.5424 87.6697 57.4451 87.4415L57.3043 87.3068L57.2321 87.1703C57.1864 87.1715 57.1635 87.1721 57.1635 87.1721C57.1623 87.126 57.1617 87.1029 57.1617 87.1029L56.8732 86.5568C56.629 85.9633 56.3873 85.4621 56.148 85.0531C55.9567 84.7352 55.7144 84.2109 55.421 83.4803C55.3247 83.2982 55.2238 82.9317 55.1179 82.3808L55.0171 81.1375C55.0075 80.7686 54.978 80.5155 54.9288 80.3784C54.8818 80.3335 54.8566 80.2419 54.8529 80.1035C54.8927 79.8718 54.906 79.5022 54.8928 78.995C54.9254 78.4865 55.0066 78.0921 55.1366 77.8118C55.1763 77.58 55.2371 77.2785 55.319 76.9071C55.4453 76.4885 55.5284 76.1633 55.5681 75.9315C55.5657 75.8392 55.5862 75.7464 55.6295 75.653C55.6728 75.5595 55.6933 75.4667 55.6909 75.3745C55.8161 74.9097 56.0567 74.488 56.4128 74.1095C56.5909 73.9202 56.7214 73.6629 56.8045 73.3377C56.843 73.0598 56.9729 72.7795 57.1944 72.4968C57.7755 71.9738 58.1743 71.4787 58.3908 71.0116C58.7073 70.8648 58.9088 70.6979 58.9954 70.511L59.2661 70.3655C59.4501 70.4067 59.6523 70.263 59.8724 69.9341C59.9604 69.7934 59.9567 69.655 59.8617 69.5191C59.7678 69.4293 59.7878 69.3134 59.9213 69.1714C60.0091 69.0307 60.1444 68.9579 60.3273 68.953C60.5089 68.9021 60.6665 68.8056 60.8001 68.6637C60.7556 68.711 60.9986 68.3815 61.5293 67.6753C61.7506 67.3926 61.9984 67.2476 62.2727 67.2404C62.5001 67.1882 62.6793 67.0451 62.8105 66.8109C62.9416 66.5767 63.1432 66.4098 63.4151 66.3103C63.5967 66.2594 63.8006 66.1848 64.0268 66.0865C64.2975 65.9409 64.5236 65.8427 64.7053 65.7917C64.9784 65.7384 65.2051 65.6632 65.3857 65.5661C65.5661 65.469 65.7243 65.3956 65.8602 65.3459C65.9492 65.2513 66.0629 65.2252 66.2013 65.2677L66.407 65.2622C66.5899 65.2574 66.8401 65.2047 67.1577 65.104C67.521 65.0021 67.7712 64.9493 67.9083 64.9457C68.5941 64.9276 69.2833 65.0478 69.9762 65.3064L70.5355 65.7069C70.7208 65.7943 70.9072 65.9279 71.0948 66.1075C71.3282 66.2859 71.514 66.3964 71.6524 66.4388C71.6524 66.4388 71.7461 66.5287 71.9338 66.7083L72.2893 67.1834C72.5707 67.4529 72.7842 67.7472 72.9296 68.0664C73.2207 68.7047 73.3717 69.2314 73.3824 69.6465L73.4689 70.3364C73.5723 70.7951 73.6264 71.1167 73.6312 71.3012C73.6564 72.2696 73.4541 73.2901 73.0245 74.3628C72.767 75.0157 72.3946 75.6485 71.9073 76.2613L70.6423 77.7483L70.043 78.4563C69.3717 79.0278 68.8363 79.5496 68.4368 80.0216C68.3935 80.115 68.3268 80.186 68.2366 80.2345C68.1463 80.2831 68.079 80.331 68.0345 80.3783L66.4139 81.3902C66.2792 81.486 66.121 81.5594 65.9393 81.6104C65.8034 81.6601 65.6675 81.7099 65.5315 81.7596C64.8518 82.0083 64.2377 82.1399 63.6891 82.1544C63.2777 82.1652 62.8645 82.1069 62.4495 81.9794C62.4038 81.9807 62.3124 81.9831 62.1752 81.9867C62.0826 81.943 61.9665 81.8768 61.8269 81.7882C61.4553 81.5673 61.175 81.344 60.9861 81.1183L60.1436 80.3791C60.0064 80.3827 59.9349 80.2692 59.9289 80.0387C59.8796 79.9015 59.692 79.7219 59.366 79.4998C59.1374 79.5058 59.0244 79.555 59.0268 79.6472C58.8511 79.9287 58.7422 80.1392 58.7 80.2788C58.4581 81.5311 58.3749 82.7331 58.4506 83.8848C58.5527 84.2974 58.7223 84.6621 58.9593 84.9789C59.717 85.9741 60.6691 86.5257 61.8155 86.6339L62.5698 86.614C63.1641 86.5983 63.5971 86.5407 63.869 86.4412L66.7995 85.6716L66.9348 85.5988C67.1142 85.4556 67.4305 85.3088 67.8841 85.1584C68.3364 84.9619 68.6516 84.769 68.8297 84.5797L69.3728 84.3577C69.599 84.2594 69.7843 84.3468 69.9285 84.6199C70.0248 84.8019 70.1192 84.9148 70.2118 84.9585L70.275 84.7492C70.3183 84.6557 70.3851 84.5847 70.4753 84.5362C70.6112 84.4865 70.7255 84.4835 70.8182 84.5272L71.0996 84.7966C71.2404 84.9313 71.3781 84.9508 71.5128 84.8549C71.6043 84.8525 71.6722 84.8276 71.7168 84.7803L71.8468 84.5L71.706 84.3653C71.6121 84.2755 71.6109 84.2293 71.7024 84.2269L71.7709 84.2251C71.7709 84.2251 71.8413 84.2925 71.9821 84.4272C72.0758 84.517 72.1234 84.585 72.1246 84.6311L72.1931 84.6293C72.3724 84.4861 72.4573 84.2301 72.4477 83.8611L72.5163 83.8593L72.5126 83.721C72.5114 83.6749 72.5337 83.6512 72.5794 83.65C72.6251 83.6488 72.6486 83.6712 72.6498 83.7174L72.6534 83.8557L72.6552 83.9249C72.702 83.9698 72.7267 84.0384 72.7291 84.1306C72.7303 84.1767 72.7544 84.2222 72.8013 84.2671C72.8025 84.3132 72.8489 84.3351 72.9403 84.3327C72.986 84.3315 73.0082 84.3078 73.007 84.2617L72.9963 83.8466C72.9951 83.8005 73.0173 83.7769 73.063 83.7757L73.0612 83.7065C73.06 83.6604 73.0823 83.6367 73.128 83.6355C73.1737 83.6343 73.1972 83.6568 73.1984 83.7029L73.2002 83.772L73.2019 83.8412L73.2127 84.2562L73.0124 84.4692L72.9438 84.471L72.886 84.8878L72.8896 85.0262C72.8968 85.3029 73.061 85.4601 73.3822 85.4977L73.4508 85.4959L73.5175 85.4249L73.4417 85.15C73.396 85.1513 73.3726 85.1288 73.3714 85.0827C73.3257 85.0839 73.3029 85.0845 73.3029 85.0845C73.3474 85.0372 73.3696 85.0135 73.3696 85.0135C73.3696 85.0135 73.3925 85.0129 73.4382 85.0117C73.5284 84.9632 73.597 84.9614 73.6439 85.0063C73.6439 85.0063 73.6445 85.0293 73.6456 85.0754C73.6456 85.0754 73.6685 85.0748 73.7142 85.0736L73.716 85.1428C73.8099 85.2326 73.7678 85.3722 73.5896 85.5615C73.5006 85.6561 73.4104 85.7046 73.319 85.707L73.2504 85.7089L72.9761 85.7161C72.839 85.7197 72.7698 85.6985 72.7687 85.6524C72.7205 85.5613 72.6261 85.4485 72.4853 85.3138C72.3447 85.179 72.249 85.02 72.1986 84.8368L72.1264 84.7003L71.9207 84.7057C71.9207 84.7057 71.9213 84.7288 71.9225 84.7749C71.9225 84.7749 71.8996 84.7755 71.8539 84.7767C71.9585 85.2815 72.1046 85.6238 72.2922 85.8034C72.3415 85.9405 72.3217 86.0564 72.2327 86.1511L71.7671 86.7171C71.7226 86.7644 71.7014 86.8342 71.7038 86.9264C71.705 86.9726 71.7291 87.0181 71.776 87.063C71.8229 87.1079 71.8464 87.1303 71.8464 87.1303C71.8909 87.083 71.936 87.0587 71.9817 87.0575C72.0732 87.0551 72.1201 87.1 72.1224 87.1923C72.1248 87.2845 72.0148 87.4489 71.7921 87.6855C71.6598 87.8736 71.4794 87.9707 71.2508 87.9767C71.0246 88.075 70.8905 88.1939 70.8483 88.3334C70.7653 88.6586 70.5632 88.8024 70.242 88.7648L69.9027 88.9122L69.5057 89.4764C69.4636 89.616 69.3511 89.6882 69.1682 89.693C68.6654 89.7063 68.2774 89.7396 68.0043 89.7929C67.8239 89.89 67.6873 89.9167 67.5947 89.873C67.5478 89.8281 67.4558 89.8074 67.3187 89.8111C67.1816 89.8147 67.0234 89.8881 66.844 90.0313C66.6636 90.1283 66.5054 90.2017 66.3695 90.2514L66.2449 90.7393L66.2467 90.8084L66.18 90.8794L66.1114 90.8812L66.1096 90.8121C66.0639 90.8133 66.041 90.8139 66.041 90.8139C66.0398 90.7678 66.0392 90.7447 66.0392 90.7447C65.8973 90.5639 65.8035 90.4741 65.7578 90.4753C65.712 90.4765 65.6224 90.5481 65.4889 90.69L65.4906 90.7592L65.4203 90.6918L65.4889 90.69C65.2193 90.8817 64.903 91.0285 64.5397 91.1304L64.5415 91.1996C64.4525 91.2942 64.3851 91.3422 64.3394 91.3434L64.2039 91.4162L64.2022 91.347ZM60.6612 68.5981C60.66 68.552 60.6594 68.5289 60.6594 68.5289C60.7051 68.5277 60.7286 68.5502 60.7298 68.5963L60.6612 68.5981ZM60.7298 68.5963C60.7755 68.5951 60.7989 68.6176 60.8001 68.6637L60.7316 68.6655L60.7298 68.5963ZM61.6184 76.3946C61.9841 76.385 62.2578 76.3547 62.4394 76.3037C63.6183 75.9034 64.455 75.5352 64.9495 75.1991C65.3092 74.9589 65.5342 74.8145 65.6245 74.766C65.8951 74.6204 66.232 74.3808 66.635 74.0471C67.038 73.7134 67.42 73.4495 67.7809 73.2554L67.9812 73.0425C68.0222 72.8568 68.1317 72.6693 68.3098 72.48C68.5323 72.2434 68.6881 72.0778 68.7771 71.9831L69.5045 70.9256C69.549 70.8783 69.5478 70.8322 69.5009 70.7873C69.4985 70.6951 69.451 70.6271 69.3583 70.5834C69.3114 70.5385 69.2423 70.5172 69.1509 70.5197C69.0595 70.5221 68.9903 70.5008 68.9434 70.4559C68.2589 70.5201 67.7121 70.6038 67.3031 70.7069C66.9398 70.8088 66.4875 71.0053 65.946 71.2965L65.3361 71.5895C64.7502 71.928 64.2335 72.2877 63.7859 72.6687C63.5622 72.8592 62.8939 73.546 61.7809 74.7291C61.3803 75.155 61.0934 75.5548 60.9201 75.9285C60.8768 76.022 60.8563 76.1148 60.8587 76.207C60.9068 76.2981 60.9772 76.3654 61.0698 76.4091L61.6184 76.3946ZM63.8083 81.459L63.7344 81.2533C63.6453 81.348 63.6013 81.4183 63.6025 81.4645L63.7469 81.7375L63.8083 81.459ZM74.4886 83.1842C74.4428 83.1855 74.4194 83.163 74.4183 83.1169C74.3701 83.0259 74.3683 82.9567 74.4128 82.9094C74.4537 82.7237 74.4718 82.5386 74.467 82.3542C74.5068 82.1224 74.502 81.9379 74.4527 81.8008C74.407 81.802 74.3836 81.7796 74.3823 81.7334C74.3366 81.7347 74.3138 81.7353 74.3138 81.7353C74.3583 81.6879 74.3805 81.6643 74.3805 81.6643C74.4695 81.5696 74.585 81.6127 74.7269 81.7936L74.7991 81.9301L74.8009 81.9993L74.736 82.1394L74.8063 82.2068L74.7413 82.3469C74.7437 82.4392 74.7684 82.5077 74.8153 82.5526C74.8176 82.6449 74.7966 82.7147 74.7521 82.762L74.6222 83.0423C74.6234 83.0884 74.5782 83.1127 74.4868 83.1151L74.4886 83.1842ZM73.9759 84.5822C73.9302 84.5834 73.9068 84.5609 73.9056 84.5148C73.8599 84.516 73.837 84.5166 73.837 84.5166C73.8358 84.4705 73.8581 84.4469 73.9038 84.4456C73.9026 84.3995 73.9249 84.3759 73.9706 84.3747L74.1041 84.2327L74.0933 83.8177C74.0921 83.7716 74.1144 83.7479 74.1601 83.7467L74.1583 83.6775C74.1572 83.6314 74.1794 83.6077 74.2251 83.6065C74.2708 83.6053 74.2942 83.6278 74.2954 83.6739C74.2954 83.6739 74.296 83.6969 74.2972 83.7431C74.2972 83.7431 74.2744 83.7437 74.2287 83.7449C74.2311 83.8371 74.2557 83.9057 74.3027 83.9506L74.3045 84.0197C74.3092 84.2042 74.1991 84.3686 73.9742 84.513L73.9759 84.5822ZM70.3544 85.1624C70.352 85.0702 70.3279 85.0246 70.2822 85.0259L70.284 85.095C70.3297 85.0938 70.3532 85.1163 70.3544 85.1624ZM57.575 87.1612C57.575 87.1612 57.5521 87.1618 57.5064 87.163C57.5064 87.163 57.5058 87.14 57.5046 87.0939L57.4396 87.234L57.575 87.1612ZM64.13 91.2105C64.2672 91.2068 64.3351 91.182 64.3339 91.1359L64.195 91.0703L64.13 91.2105ZM79.3888 94.3376C79.3431 94.3388 79.3197 94.3163 79.3185 94.2702L79.3166 94.201L79.3148 94.1319C79.2691 94.1331 79.2228 94.1112 79.1759 94.0663C79.1747 94.0202 79.1512 93.9978 79.1055 93.999C79.0142 94.0014 78.8993 93.9813 78.7609 93.9388C78.6226 93.8964 78.5299 93.8527 78.483 93.8077L77.7072 92.9976L77.6315 92.7227C77.717 92.4897 77.7338 92.2586 77.6821 92.0292C77.6749 91.7525 77.6701 91.5681 77.6677 91.4758C77.6629 91.2914 77.5902 91.1318 77.4494 90.9971C77.1211 90.6827 76.9503 90.2719 76.9371 89.7646L76.921 89.1421C76.9138 88.8654 76.8627 88.6591 76.7677 88.5232L76.7641 88.3848C76.8928 88.0584 76.9055 87.6658 76.8021 87.2071L76.795 86.9304C76.7865 86.6076 76.8263 86.3758 76.9141 86.2351L76.9791 86.0949C76.966 85.5876 77.0364 84.7782 77.1906 83.6666L77.178 83.1824C77.1648 82.6752 77.2214 82.2122 77.3478 81.7936C77.3923 81.7462 77.4127 81.6534 77.4092 81.5151C77.3611 81.424 77.3352 81.3093 77.3316 81.171C77.3268 80.9865 77.3455 80.8245 77.3877 80.685C77.4298 80.5454 77.4725 80.4289 77.5158 80.3355C77.5567 80.1498 77.6181 79.8713 77.6999 79.5C77.7818 79.1287 77.8192 78.8047 77.8119 78.528C77.8926 78.1105 77.951 77.7167 77.9871 77.3466C78.0678 76.9292 78.1485 76.5117 78.2291 76.0943L79.1463 71.7784C79.1837 71.4544 79.2631 70.9909 79.3847 70.3878C79.5519 69.7834 79.6524 69.2501 79.6862 68.7877C79.7561 67.9553 79.9643 67.1653 80.3109 66.4178C80.3951 66.1387 80.412 65.9075 80.3615 65.7243L80.2839 65.3802C80.2779 65.1496 80.3381 64.825 80.4645 64.4064C80.6354 63.9404 80.7178 63.5921 80.7118 63.3615C80.7071 63.1771 80.7257 63.0151 80.7678 62.8755C80.81 62.736 80.8527 62.6195 80.896 62.526C81.2751 61.2701 81.6885 59.5748 82.1363 57.4403C82.2133 56.8845 82.3175 56.4895 82.4487 56.2553C82.7098 55.7408 82.8343 55.2529 82.8224 54.7918C82.8561 54.3294 82.9566 53.7961 83.1239 53.1918C83.2093 52.9588 83.3556 52.4243 83.5626 51.5881C83.6023 51.3564 83.6643 51.1009 83.7485 50.8218C83.8785 50.5415 83.941 50.3091 83.9363 50.1247L84.4977 47.964C84.5351 47.64 84.6368 47.1528 84.8029 46.5024C84.8895 46.3155 85.023 46.1735 85.2035 46.0765C85.3828 45.9333 85.5639 45.8593 85.7467 45.8545C85.9753 45.8484 86.1599 45.9128 86.3006 46.0475C86.7216 46.4055 87.1204 46.7872 87.4968 47.1926C87.5426 47.1914 87.6141 47.3049 87.7115 47.533L88.2888 48.6253C88.4332 48.8984 88.5317 49.1726 88.5846 49.4481C88.6821 49.6763 88.7355 49.9748 88.7451 50.3437L88.7522 50.6204C88.7595 50.8971 88.6974 51.1526 88.5663 51.3867C88.5783 51.8479 88.4772 52.3582 88.263 52.9176C88.18 53.2428 88.1011 53.7294 88.0264 54.3774C87.9446 54.7488 87.8603 55.0279 87.7737 55.2148C87.6486 55.6795 87.5029 56.2371 87.3368 56.8876C87.2153 57.4907 87.1129 57.9548 87.0299 58.2801C86.7819 59.3018 86.5725 60.0457 86.4016 60.5117C86.0659 61.6742 85.8582 62.4872 85.7788 62.9508L85.4086 64.5526C85.2474 65.3875 84.9946 66.2248 84.6505 67.0646C84.5205 67.3449 84.3936 67.7405 84.2696 68.2514C84.1444 68.7161 84.0187 69.1578 83.8923 69.5765L83.7677 70.0643C83.7737 70.2949 83.7544 70.4338 83.7099 70.4812C83.4909 70.8561 83.3435 71.3445 83.2677 71.9465C83.1377 72.2268 83.0113 72.6454 82.8885 73.2024C82.7658 73.7594 82.6623 74.1775 82.578 74.4566C82.4119 75.107 82.3102 75.5942 82.2729 75.9182C82.2789 76.1488 82.1736 76.4977 81.957 76.9649C81.7018 77.71 81.5797 78.29 81.5904 78.705C81.5495 78.8907 81.4875 79.1462 81.4044 79.4714C81.366 79.7493 81.3496 80.0035 81.3557 80.2341C81.3112 80.2814 81.2895 80.3281 81.2906 80.3742C81.2918 80.4203 81.2696 80.444 81.2239 80.4452C81.0916 80.6333 81.0067 80.8893 80.9694 81.2133C80.9308 81.4912 80.8683 81.7236 80.7816 81.9105C80.7419 82.1423 80.7022 82.3741 80.6625 82.6058C80.6215 82.7915 80.5812 83.0002 80.5414 83.232C80.503 83.5099 80.4217 83.9043 80.2977 84.4152C80.2195 84.9249 80.116 85.3429 79.9872 85.6693L79.9258 85.9478C79.933 86.2245 79.8728 86.5491 79.7452 86.9217C79.6633 87.293 79.6026 87.5946 79.5628 87.8263L79.2035 89.8432L79.1421 90.1217L79.243 91.365L79.2484 91.5725C79.2687 92.3565 79.3294 92.9317 79.4304 93.2982C79.4798 93.4353 79.5086 93.6653 79.5169 93.9881L79.452 94.1282L79.4538 94.1974L79.4556 94.2666C79.4568 94.3127 79.4346 94.3364 79.3888 94.3376ZM79.8505 96.2635C79.7158 96.3594 79.5545 96.3175 79.367 96.1379C79.2707 95.9558 79.2893 95.7938 79.423 95.6518C79.512 95.5572 79.6708 95.5069 79.8993 95.5008C79.945 95.4996 79.9914 95.5215 80.0382 95.5664C80.0863 95.6574 80.0881 95.7266 80.0436 95.7739C80.0485 95.9583 79.984 96.1216 79.8505 96.2635ZM88.7635 94.0899C88.7178 94.0911 88.6944 94.0687 88.6932 94.0226L88.6914 93.9534L88.6895 93.8842C88.6438 93.8854 88.5975 93.8636 88.5506 93.8187C88.5494 93.7726 88.5259 93.7501 88.4802 93.7513C88.3888 93.7537 88.274 93.7337 88.1356 93.6912C87.9973 93.6487 87.9046 93.605 87.8577 93.5601L87.0819 92.75L87.0062 92.4751C87.0917 92.2421 87.1085 92.0109 87.0568 91.7816C87.0496 91.5049 87.0449 91.3204 87.0424 91.2282C87.0376 91.0437 86.9649 90.8841 86.8241 90.7494C86.4958 90.4351 86.325 90.0243 86.3118 89.517L86.2956 88.8944C86.2885 88.6178 86.2374 88.4114 86.1424 88.2755L86.1388 88.1372C86.2676 87.8107 86.2803 87.4182 86.1768 86.9594L86.1697 86.6828C86.1612 86.3599 86.201 86.1282 86.2888 85.9874L86.3538 85.8473C86.3406 85.34 86.4111 84.5306 86.5653 83.419L86.5527 82.9348C86.5395 82.4275 86.5961 81.9646 86.7225 81.5459C86.767 81.4986 86.7874 81.4058 86.7839 81.2674C86.7358 81.1764 86.7099 81.0617 86.7063 80.9234C86.7016 80.7389 86.7202 80.5769 86.7623 80.4373C86.8045 80.2978 86.8472 80.1813 86.8905 80.0879C86.9314 79.9022 86.9928 79.6237 87.0746 79.2524C87.1565 78.881 87.1938 78.557 87.1866 78.2803C87.2673 77.8629 87.3257 77.4691 87.3618 77.099C87.4425 76.6815 87.5232 76.2641 87.6037 75.8466L88.521 71.5308C88.5584 71.2068 88.6378 70.7432 88.7594 70.1401C88.9266 69.5358 89.0271 69.0025 89.0609 68.5401C89.1308 67.7076 89.339 66.9176 89.6855 66.1701C89.7698 65.891 89.7867 65.6599 89.7362 65.4766L89.6586 65.1326C89.6526 64.902 89.7128 64.5774 89.8392 64.1587C90.0101 63.6927 90.0925 63.3445 90.0865 63.1139C90.0818 62.9294 90.1004 62.7674 90.1425 62.6279C90.1847 62.4883 90.2274 62.3718 90.2707 62.2784C90.6498 61.0224 91.0632 59.3272 91.511 57.1926C91.588 56.6368 91.6922 56.2418 91.8233 56.0076C92.0845 55.4931 92.209 55.0053 92.1971 54.5442C92.2308 54.0818 92.3313 53.5485 92.4986 52.9441C92.5841 52.7112 92.7303 52.1766 92.9373 51.3405C92.977 51.1087 93.039 50.8533 93.1232 50.5742C93.2532 50.2939 93.3157 50.0615 93.311 49.877L93.8724 47.7164C93.9098 47.3924 94.0115 46.9052 94.1776 46.2547C94.2642 46.0678 94.3977 45.9259 94.5782 45.8288C94.7575 45.6856 94.9386 45.6116 95.1214 45.6068C95.35 45.6008 95.5346 45.6651 95.6753 45.7998C96.0963 46.1579 96.4951 46.5396 96.8716 46.945C96.9173 46.9438 96.9888 47.0572 97.0862 47.2854L97.6635 48.3777C97.8078 48.6507 97.9064 48.925 97.9593 49.2005C98.0568 49.4286 98.1102 49.7272 98.1198 50.0961L98.1269 50.3728C98.1342 50.6495 98.0722 50.9049 97.9411 51.1391C97.953 51.6003 97.8519 52.1105 97.6376 52.6699C97.5547 52.9952 97.4758 53.4818 97.4011 54.1298C97.3192 54.5011 97.235 54.7802 97.1483 54.9671C97.0232 55.4319 96.8776 55.9895 96.7115 56.6399C96.59 57.243 96.4877 57.7072 96.4046 58.0324C96.1567 59.0542 95.9472 59.7981 95.7763 60.264C95.4406 61.4266 95.2329 62.2396 95.1535 62.7032L94.7833 64.305C94.622 65.1399 94.3693 65.9772 94.0252 66.8169C93.8952 67.0972 93.7683 67.4928 93.6442 68.0037C93.5191 68.4685 93.3933 68.9102 93.267 69.3288L93.1424 69.8167C93.1484 70.0472 93.1291 70.1862 93.0846 70.2335C92.8656 70.6085 92.7182 71.0969 92.6424 71.6988C92.5124 71.9791 92.386 72.3978 92.2632 72.9548C92.1405 73.5118 92.037 73.9298 91.9527 74.2089C91.7866 74.8594 91.6849 75.3466 91.6476 75.6706C91.6535 75.9012 91.5483 76.25 91.3317 76.7172C91.0765 77.4623 90.9544 78.0424 90.9651 78.4574C90.9242 78.6431 90.8622 78.8985 90.7791 79.2237C90.7407 79.5016 90.7244 79.7559 90.7304 79.9864C90.6859 80.0338 90.6641 80.0805 90.6653 80.1266C90.6666 80.1727 90.6443 80.1964 90.5986 80.1976C90.4663 80.3856 90.3814 80.6417 90.3441 80.9657C90.3056 81.2436 90.2429 81.476 90.1563 81.6629C90.1166 81.8946 90.0769 82.1264 90.0372 82.3582C89.9962 82.5439 89.9559 82.7526 89.9161 82.9844C89.8777 83.2623 89.7964 83.6567 89.6724 84.1675C89.5942 84.6772 89.4907 85.0953 89.3619 85.4217L89.3005 85.7002C89.3077 85.9769 89.2475 86.3015 89.1199 86.674C89.038 87.0454 88.9773 87.3469 88.9375 87.5787L88.5782 89.5956L88.5168 89.8741L88.6177 91.1173L88.6231 91.3249C88.6434 92.1088 88.7042 92.684 88.8051 93.0505C88.8545 93.1877 88.8833 93.4176 88.8916 93.7404L88.8267 93.8806L88.8285 93.9498L88.8303 94.0189C88.8315 94.0651 88.8092 94.0887 88.7635 94.0899ZM89.2252 96.0159C89.0905 96.1117 88.9293 96.0698 88.7416 95.8902C88.6454 95.7082 88.664 95.5462 88.7976 95.4042C88.8867 95.3096 89.0455 95.2592 89.274 95.2532C89.3198 95.252 89.3661 95.2738 89.4129 95.3187C89.461 95.4097 89.4628 95.4789 89.4183 95.5262C89.4231 95.7107 89.3587 95.8739 89.2252 96.0159ZM119.858 87.3157L119.731 87.7343L119.664 87.8053L119.662 87.7361C119.573 87.8308 119.464 88.0183 119.334 88.2986C119.25 88.5777 119.14 88.7652 119.005 88.861L119.004 88.7918L118.937 88.8628C118.946 89.1856 118.906 89.4174 118.818 89.5582C118.729 89.6989 118.55 89.819 118.278 89.9185L118.345 89.8475L118.134 89.6455L117.582 89.5216C117.399 89.5264 117.265 89.6684 117.181 89.9475C117.055 90.3662 116.856 90.6483 116.585 90.7939C116.45 90.8897 116.29 90.8478 116.102 90.6682L115.965 90.6718C115.69 90.6791 115.441 90.7779 115.217 90.9684C115.039 91.1116 114.927 91.2069 114.882 91.2542C114.838 91.3015 114.746 91.327 114.61 91.3306C114.518 91.333 114.448 91.2887 114.4 91.1977C114.257 90.9707 114.024 90.7923 113.701 90.6624C113.422 90.5313 113.213 90.3984 113.072 90.2637L113.141 90.2619L113.07 90.1945L111.748 89.468C111.003 88.9801 110.461 88.3714 110.122 87.6421C110.072 87.4588 110.088 87.2276 110.173 86.9485L110.036 86.9522L110.102 86.8812L110.452 87.1488C110.546 87.2386 110.638 87.2362 110.727 87.1416L110.79 86.9322C110.349 85.7902 110.113 84.6428 110.083 83.4899C110.074 83.121 110.083 82.6362 110.114 82.0355C110.189 81.3875 110.243 80.8554 110.279 80.4391C110.275 80.3008 110.227 80.2328 110.136 80.2352C109.997 80.1927 109.885 80.2649 109.799 80.4518C109.755 80.5452 109.712 80.6387 109.668 80.7321C109.625 80.8255 109.606 80.9414 109.609 81.0798C109.618 81.4026 109.554 81.6119 109.419 81.7078C109.284 81.8036 109.036 81.9025 108.672 82.0044L108.145 82.8489C108.012 82.9909 107.9 83.0631 107.807 83.0655C107.622 82.9781 107.484 82.9356 107.393 82.938C107.164 82.9441 107.123 83.1528 107.272 83.5642C107.321 83.7013 107.232 83.7729 107.003 83.779C106.594 83.8821 106.462 84.1162 106.61 84.4815C105.731 85.8891 105.227 86.7331 105.097 87.0134C105.056 87.1991 104.902 87.4108 104.633 87.6486C104.364 87.8403 104.208 88.029 104.167 88.2147C104.084 88.5399 103.775 88.9403 103.239 89.416L103.107 89.6271C103.019 89.7679 102.816 89.9116 102.5 90.0584C102.183 90.1591 101.98 90.2798 101.891 90.4206C101.716 90.7021 101.382 91.034 100.888 91.4162C100.757 91.6504 100.552 91.6789 100.273 91.5016L98.5952 90.3C98.5892 90.0695 98.4942 89.9335 98.3101 89.8922C98.1249 89.8048 98.0088 89.7387 97.9619 89.6938C97.4038 89.3394 96.9828 88.9813 96.6989 88.6196C96.4644 88.3951 96.3423 88.0984 96.3327 87.7295C96.3315 87.6833 96.3532 87.6366 96.3977 87.5893C96.4411 87.4959 96.4164 87.4273 96.3238 87.3836C95.9532 87.2088 95.7638 86.96 95.7555 86.6372C95.7506 86.4527 95.7916 86.2671 95.8782 86.0802C95.9637 85.8472 96.0281 85.684 96.0714 85.5906L96.1363 85.4504L96.075 85.7289L96.0786 85.8672C96.0797 85.9134 96.0803 85.9364 96.0803 85.9364C96.126 85.9352 96.1489 85.9346 96.1489 85.9346C96.2379 85.84 96.2362 85.7708 96.1435 85.7271L96.1363 85.4504C96.1808 85.4031 96.202 85.3333 96.1995 85.2411C96.2081 83.8103 96.2503 82.794 96.3263 82.1921C96.4466 81.5428 96.7096 80.2207 97.1152 78.2257C97.1959 77.8083 97.2796 77.5061 97.3662 77.3192C97.4529 77.1324 97.6303 76.92 97.8986 76.6822C98.1681 76.4905 98.1645 76.3521 97.8878 76.2672C97.7014 76.1337 97.607 76.0208 97.6045 75.9285C97.601 75.7902 97.6858 75.5342 97.8591 75.1604C98.0312 74.7405 98.1143 74.4153 98.1082 74.1848C98.1011 73.9081 97.9808 73.6805 97.7475 73.5021C97.8341 73.3152 97.8768 73.1987 97.8756 73.1526C97.8732 73.0604 97.848 72.9688 97.7998 72.8777C97.7505 72.7406 97.7241 72.6029 97.7205 72.4645C97.7146 72.2339 97.7795 72.0938 97.9154 72.0441C98.0514 71.9943 98.2126 72.0362 98.399 72.1697C98.5373 72.2122 98.7003 72.3233 98.888 72.5029C98.8868 72.4568 98.9091 72.4331 98.9548 72.4319L98.8176 72.4355L98.814 72.2972C98.8104 72.1588 98.7383 72.0223 98.5975 71.8876C98.5013 71.7055 98.4298 71.5921 98.3829 71.5472C98.2397 71.3202 98.1658 71.1145 98.161 70.9301C98.1562 70.7456 98.2639 70.4889 98.4841 70.1601L98.4066 69.8161C98.4907 69.537 98.6177 69.1414 98.7874 68.6293C98.9571 68.1172 99.1525 67.6967 99.3726 67.3679C99.3696 67.2756 99.3845 66.9753 99.4172 66.4668C99.4489 65.9122 99.5966 65.4238 99.8593 65.0015C99.9921 64.8134 100.077 64.5805 100.116 64.3026C100.155 64.0247 100.195 63.8159 100.237 63.6764C100.315 63.1667 100.562 62.9987 100.978 63.1723C101.024 63.1711 101.07 63.1468 101.114 63.0995C101.204 63.0509 101.272 63.003 101.316 62.9557L101.248 62.9575L101.244 62.8192L101.316 62.9557L101.585 62.7409L101.308 62.6098C101.35 62.5164 101.301 62.3562 101.158 62.1292C101.06 61.9011 101.101 61.7385 101.282 61.6414L101.42 61.6378C101.693 61.6306 101.996 61.8302 102.327 62.2368C102.421 62.3266 102.469 62.4407 102.473 62.579C102.531 63.039 102.788 63.2629 103.246 63.2508C103.474 63.2448 103.637 63.3789 103.736 63.6532C103.835 63.9736 104.027 64.2685 104.308 64.5379C104.589 64.8074 104.8 65.0095 104.941 65.1442C105.224 65.4597 105.369 65.7789 105.378 66.1017C105.38 66.1939 105.34 66.4257 105.259 66.7971C104.649 68.0129 104.141 69.5492 103.731 71.4059L103.105 73.7067C103.115 74.0756 103.033 74.493 102.863 74.959C102.738 75.4238 102.632 75.7727 102.547 76.0057C102.465 76.377 102.384 76.7714 102.303 77.1888C102.267 77.5589 102.208 77.9297 102.126 78.301C102.045 78.7185 101.941 79.1134 101.814 79.486C101.731 79.8112 101.647 80.0903 101.561 80.3233L101.126 82.0653L101.27 82.3383C101.364 82.4282 101.479 82.4482 101.615 82.3985C101.929 82.1594 102.24 81.8051 102.548 81.3355L105.919 76.4011C105.964 76.3538 106.007 76.2603 106.049 76.1208C106.137 75.98 106.226 75.9084 106.319 75.906C106.454 75.8563 106.615 75.8751 106.8 75.9625C106.847 76.0074 106.892 76.0062 106.937 75.9589C106.982 75.9116 107.004 75.8649 107.003 75.8187C106.999 75.6804 107.085 75.4935 107.262 75.2581C107.483 74.9754 107.591 74.7418 107.587 74.5573C107.726 74.6459 107.841 74.6429 107.929 74.5483L108.463 73.9112C109.524 72.5449 110.166 71.6743 110.384 71.2994C110.428 71.252 110.495 71.158 110.583 71.0172C110.669 70.8304 110.758 70.7127 110.848 70.6641C110.985 70.6144 111.143 70.5871 111.327 70.5823L111.395 70.5805C111.532 70.5768 111.645 70.5277 111.734 70.4331C111.869 70.3372 111.959 70.2656 112.003 70.2183C112.27 69.9344 112.5 69.9744 112.693 70.3385L113.051 70.952L113.053 71.0212C113.43 71.4266 113.74 71.926 113.984 72.5194C114.273 73.0656 114.465 73.4297 114.561 73.6117C114.905 74.5255 115.04 75.3065 114.966 75.9545C114.972 76.2312 114.932 76.4399 114.845 76.5807C114.577 76.8646 114.517 77.2123 114.665 77.6237C114.713 77.6686 114.737 77.7371 114.74 77.8294C114.741 77.9216 114.7 78.0612 114.613 78.248C114.526 78.4349 114.484 78.5745 114.487 78.6667L114.492 78.8742C114.509 79.5198 114.397 80.4918 114.156 81.7903C113.992 82.533 113.876 83.3436 113.808 84.2222C113.811 84.3605 113.721 84.4321 113.538 84.4369C113.459 84.9005 113.422 85.2245 113.427 85.409C113.436 85.7779 113.468 86.1231 113.522 86.4447C113.575 86.7202 113.627 86.9726 113.679 87.202C113.734 87.5697 113.995 87.9089 114.46 88.2197C114.925 88.4843 115.339 88.6118 115.705 88.6021C116.254 88.5876 116.979 88.3377 117.882 87.8524C118.696 87.5079 119.355 87.329 119.858 87.3157ZM101.308 62.6098C101.309 62.6559 101.286 62.6796 101.24 62.6808L101.238 62.6116L101.308 62.6098ZM101.24 62.6808L101.244 62.8192L101.242 62.75L101.24 62.6808ZM102.003 63.0067C101.958 63.008 101.936 63.0316 101.937 63.0777C101.937 63.0777 101.961 63.1002 102.007 63.1451C102.053 63.1439 102.075 63.1202 102.074 63.0741L102.003 63.0067ZM101.148 64.4137C101.103 64.4611 101.082 64.5078 101.084 64.5539C101.129 64.5527 101.152 64.5521 101.152 64.5521L101.289 64.5485C101.38 64.546 101.47 64.4975 101.559 64.4029C101.648 64.2621 101.738 64.2136 101.83 64.2573C101.878 64.3022 101.925 64.3701 101.973 64.4612C102.019 64.5061 102.087 64.4582 102.175 64.3174C102.261 64.1305 102.304 63.991 102.301 63.8987C102.343 63.7592 102.364 63.6664 102.362 63.6202C102.361 63.5741 102.27 63.5765 102.089 63.6275C101.953 63.6772 101.792 63.6814 101.608 63.6402C101.47 63.5977 101.379 63.6001 101.334 63.6474C101.291 63.7408 101.249 63.8804 101.207 64.0661C101.166 64.2056 101.146 64.3215 101.148 64.4137ZM99.8524 67.3552C99.8058 67.3103 99.781 67.2648 99.78 67.2187C99.779 67.1725 99.7552 67.1501 99.7096 67.1513C99.5728 67.1549 99.4598 67.204 99.3706 67.2987C99.5114 67.4334 99.6264 67.4765 99.7166 67.428L99.8524 67.3552ZM98.632 70.5715C98.6284 70.4332 98.5797 70.3191 98.4859 70.2293L98.4949 70.5751L98.5689 70.7808L98.632 70.5715ZM109.543 73.2597L109.475 73.2615C109.477 73.3538 109.478 73.3999 109.478 73.3999C109.481 73.4921 109.526 73.4909 109.616 73.3963L109.543 73.2597ZM108.257 73.9167C108.303 73.9616 108.349 73.9604 108.393 73.9131C108.349 73.9604 108.281 73.9853 108.19 73.9877C108.143 73.9428 108.165 73.9191 108.257 73.9167ZM107.585 74.4882C107.586 74.5343 107.565 74.5579 107.518 74.5592L107.585 74.4882ZM108.483 74.7413C108.484 74.7874 108.485 74.8105 108.485 74.8105C108.531 74.8093 108.554 74.8087 108.554 74.8087L108.552 74.7395L108.482 74.6721L108.483 74.7413ZM105.553 78.1413L105.347 78.1467L105.351 78.285L105.556 78.2796L105.553 78.1413ZM108.804 81.7932C108.938 81.6513 108.957 81.5354 108.863 81.4456L108.658 81.451C108.429 81.457 108.364 81.5741 108.461 81.8023L108.672 82.0044C108.761 81.9097 108.806 81.8393 108.804 81.7932ZM107.586 82.4484L107.516 82.381L107.517 82.4502L107.586 82.4484ZM112.647 84.4605C112.651 84.5988 112.698 84.6899 112.792 84.7336C112.928 84.7299 113.042 84.7039 113.133 84.6553C113.313 84.5583 113.449 84.5085 113.54 84.5061L113.126 84.3786C112.893 84.2463 112.756 84.25 112.714 84.3895L112.647 84.4605ZM119.858 87.3157C119.811 87.2708 119.787 87.2483 119.787 87.2483C119.832 87.201 119.877 87.1998 119.924 87.2447L119.858 87.3157ZM118.413 89.8457C118.367 89.8008 118.342 89.7322 118.34 89.64L118.345 89.8475L118.413 89.8457ZM118.076 90.0623C118.073 89.9701 118.118 89.9227 118.21 89.9203L118.076 90.0623ZM115.635 91.1651L115.637 91.2343L115.567 91.2361L115.635 91.1651ZM129.892 89.6117L129.824 89.6135C129.777 89.6147 129.755 89.6153 129.755 89.6153C129.754 89.5692 129.754 89.5462 129.754 89.5462L129.549 89.6208C129.505 89.6681 129.391 89.6942 129.208 89.699C129.071 89.7026 128.886 89.6383 128.654 89.506C128.422 89.3737 128.215 89.3099 128.032 89.3148C127.575 89.3268 127.253 89.3122 127.07 89.271C126.515 89.0549 126.051 88.7903 125.677 88.4771C125.538 88.3885 125.374 88.2774 125.188 88.1439C125.046 87.9631 124.882 87.8059 124.696 87.6724C124.696 87.6724 124.626 87.6051 124.485 87.4703C124.393 87.4727 124.345 87.4048 124.342 87.2664C124.246 87.0844 124.034 86.8362 123.705 86.5218C123.422 86.2063 123.232 85.9344 123.135 85.7063L122.994 85.5716L122.922 85.435C122.876 85.4362 122.853 85.4368 122.853 85.4368C122.852 85.3907 122.851 85.3677 122.851 85.3677L122.563 84.8215C122.319 84.2281 122.077 83.7269 121.838 83.3179C121.647 82.9999 121.404 82.4756 121.11 81.745C121.014 81.563 120.913 81.1965 120.808 80.6455L120.707 79.4022C120.697 79.0333 120.668 78.7803 120.619 78.6431C120.571 78.5982 120.546 78.5066 120.542 78.3683C120.582 78.1365 120.596 77.767 120.583 77.2597C120.615 76.7512 120.696 76.3568 120.826 76.0765C120.867 75.8448 120.927 75.5432 121.008 75.1719C121.135 74.7532 121.219 74.428 121.258 74.1962C121.255 74.104 121.276 74.0111 121.32 73.9177C121.362 73.8243 121.383 73.7314 121.381 73.6392C121.506 73.1744 121.747 72.7528 122.103 72.3742C122.281 72.1849 122.411 71.9276 122.494 71.6024C122.533 71.3245 122.663 71.0442 122.884 70.7615C123.465 70.2385 123.864 69.7435 124.08 69.2763C124.398 69.1295 124.599 68.9626 124.685 68.7758L124.956 68.6302C125.14 68.6715 125.342 68.5277 125.562 68.1989C125.651 68.0581 125.647 67.9197 125.551 67.7838C125.457 67.694 125.477 67.5781 125.611 67.4361C125.699 67.2954 125.834 67.2226 126.017 67.2178C126.199 67.1668 126.356 67.0704 126.49 66.9284C126.446 66.9757 126.688 66.6463 127.219 65.9401C127.441 65.6573 127.689 65.5124 127.962 65.5051C128.19 65.453 128.37 65.3098 128.501 65.0756C128.631 64.8414 128.833 64.6746 129.105 64.5751C129.287 64.5241 129.491 64.4495 129.717 64.3513C129.987 64.2057 130.213 64.1074 130.395 64.0565C130.668 64.0031 130.895 63.9279 131.076 63.8308C131.256 63.7338 131.414 63.6604 131.55 63.6106C131.639 63.516 131.753 63.4899 131.891 63.5324L132.097 63.527C132.279 63.5221 132.53 63.4694 132.847 63.3687C133.211 63.2668 133.461 63.2141 133.598 63.2104C134.284 63.1923 134.974 63.3126 135.666 63.5711L136.226 63.9717C136.411 64.0591 136.597 64.1926 136.785 64.3722C137.018 64.5506 137.204 64.6611 137.342 64.7036C137.342 64.7036 137.436 64.7934 137.623 64.973L137.979 65.4482C138.261 65.7176 138.474 66.0119 138.62 66.3311C138.911 66.9695 139.062 67.4962 139.073 67.9112L139.159 68.6011C139.262 69.0598 139.316 69.3814 139.321 69.5659C139.346 70.5343 139.144 71.5549 138.715 72.6276C138.457 73.2804 138.084 73.9132 137.598 74.526L136.332 76.013L135.733 76.7211C135.062 77.2925 134.527 77.8143 134.127 78.2863C134.083 78.3797 134.017 78.4507 133.927 78.4993C133.837 78.5478 133.769 78.5957 133.725 78.643L132.104 79.6549C131.969 79.7508 131.81 79.8242 131.629 79.8751C131.493 79.9249 131.357 79.9746 131.222 80.0243C130.542 80.273 129.928 80.4046 129.379 80.4191C128.967 80.43 128.554 80.3717 128.14 80.2442C128.094 80.2454 128.002 80.2478 127.865 80.2514C127.772 80.2077 127.656 80.1416 127.517 80.053C127.145 79.8321 126.865 79.6087 126.676 79.383L125.833 78.6438C125.696 78.6474 125.625 78.534 125.619 78.3034C125.569 78.1663 125.382 77.9866 125.056 77.7645C124.827 77.7706 124.714 77.8197 124.717 77.9119C124.541 78.1934 124.432 78.404 124.39 78.5435C124.148 79.7959 124.065 80.9979 124.141 82.1495C124.243 82.5621 124.412 82.9268 124.649 83.2436C125.407 84.2388 126.359 84.7905 127.505 84.8986L128.26 84.8787C128.853 84.863 129.287 84.8054 129.559 84.7059L132.489 83.9363L132.624 83.8635C132.804 83.7204 133.12 83.5736 133.574 83.4232C134.026 83.2266 134.341 83.0337 134.52 82.8444L135.063 82.6224C135.289 82.5241 135.474 82.6115 135.618 82.8846C135.715 83.0667 135.809 83.1795 135.901 83.2232L135.965 83.0139C136.009 82.9205 136.075 82.8495 136.165 82.8009C136.301 82.7512 136.415 82.7482 136.508 82.7919L136.79 83.0613C136.93 83.1961 137.068 83.2155 137.203 83.1196C137.294 83.1172 137.362 83.0923 137.406 83.045L137.536 82.7647L137.395 82.63C137.302 82.5402 137.301 82.4941 137.392 82.4917L137.461 82.4898C137.461 82.4898 137.531 82.5572 137.672 82.6919C137.766 82.7817 137.814 82.8497 137.815 82.8958L137.883 82.894C138.062 82.7508 138.147 82.4948 138.138 82.1259L138.206 82.1241L138.202 81.9857C138.201 81.9396 138.224 81.9159 138.27 81.9147C138.315 81.9135 138.338 81.936 138.34 81.9821L138.343 82.1204L138.345 82.1896C138.392 82.2345 138.416 82.3031 138.419 82.3953C138.42 82.4414 138.444 82.4869 138.491 82.5318C138.493 82.578 138.538 82.5998 138.63 82.5974C138.676 82.5962 138.698 82.5725 138.697 82.5264L138.686 82.1114C138.685 82.0653 138.707 82.0416 138.752 82.0404L138.751 81.9712C138.749 81.9251 138.772 81.9014 138.818 81.9002C138.863 81.899 138.887 81.9215 138.888 81.9676L138.89 82.0368L138.892 82.1059L138.902 82.521L138.702 82.7339L138.633 82.7357L138.576 83.1526L138.58 83.2909C138.587 83.5676 138.75 83.7248 139.072 83.7624L139.141 83.7606L139.207 83.6897L139.132 83.4148C139.085 83.416 139.063 83.3935 139.062 83.3474C139.015 83.3486 138.992 83.3492 138.992 83.3492C139.037 83.3019 139.06 83.2782 139.06 83.2782C139.06 83.2782 139.083 83.2776 139.128 83.2764C139.218 83.2279 139.287 83.2261 139.333 83.271C139.333 83.271 139.334 83.2941 139.335 83.3402C139.335 83.3402 139.358 83.3396 139.404 83.3384L139.406 83.4075C139.5 83.4973 139.457 83.6369 139.28 83.8262C139.191 83.9208 139.1 83.9694 139.009 83.9718L138.941 83.9736L138.666 83.9808C138.528 83.9845 138.46 83.9632 138.458 83.9171C138.41 83.8261 138.316 83.7132 138.175 83.5785C138.035 83.4438 137.939 83.2848 137.888 83.1015L137.817 82.965L137.61 82.9704C137.61 82.9704 137.611 82.9935 137.612 83.0396C137.612 83.0396 137.59 83.0402 137.544 83.0414C137.648 83.5463 137.795 83.8885 137.982 84.0681C138.032 84.2053 138.012 84.3211 137.923 84.4158L137.457 84.9818C137.412 85.0292 137.391 85.0989 137.393 85.1912C137.395 85.2373 137.419 85.2828 137.466 85.3277C137.512 85.3726 137.536 85.3951 137.536 85.3951C137.581 85.3477 137.626 85.3235 137.672 85.3223C137.763 85.3199 137.81 85.3648 137.813 85.457C137.815 85.5492 137.705 85.7136 137.482 85.9503C137.35 86.1383 137.169 86.2354 136.94 86.2414C136.714 86.3397 136.581 86.4586 136.538 86.5982C136.456 86.9234 136.253 87.0672 135.932 87.0295L135.592 87.1769L135.196 87.7411C135.153 87.8807 135.041 87.9529 134.858 87.9577C134.355 87.971 133.967 88.0043 133.694 88.0577C133.513 88.1547 133.378 88.1814 133.284 88.1377C133.238 88.0928 133.146 88.0722 133.009 88.0758C132.871 88.0794 132.714 88.1528 132.534 88.296C132.354 88.393 132.195 88.4664 132.059 88.5162L131.934 89.004L131.936 89.0732L131.87 89.1442L131.802 89.146L131.8 89.0768C131.754 89.078 131.731 89.0786 131.731 89.0786C131.73 89.0325 131.729 89.0094 131.729 89.0094C131.587 88.8286 131.493 88.7388 131.448 88.74C131.402 88.7412 131.312 88.8128 131.179 88.9548L131.181 89.0239L131.111 88.9566L131.179 88.9548C130.909 89.1465 130.593 89.2933 130.229 89.3951L130.231 89.4643C130.142 89.559 130.075 89.6069 130.029 89.6081L129.894 89.6809L129.892 89.6117ZM126.351 66.8628C126.349 66.8167 126.349 66.7937 126.349 66.7937C126.395 66.7925 126.419 66.8149 126.42 66.861L126.351 66.8628ZM126.42 66.861C126.465 66.8598 126.489 66.8823 126.49 66.9284L126.422 66.9302L126.42 66.861ZM127.308 74.6594C127.674 74.6497 127.947 74.6194 128.129 74.5685C129.308 74.1681 130.145 73.7999 130.64 73.4639C131 73.2236 131.224 73.0792 131.314 73.0307C131.585 72.8851 131.921 72.6455 132.325 72.3118C132.728 71.9781 133.11 71.7143 133.471 71.5201L133.671 71.3072C133.712 71.1215 133.822 70.934 133.999 70.7448C134.222 70.5081 134.378 70.3425 134.467 70.2479L135.195 69.1904C135.239 69.143 135.237 69.0969 135.191 69.052C135.189 68.9598 135.141 68.8918 135.048 68.8481C135.001 68.8032 134.932 68.782 134.841 68.7844C134.75 68.7868 134.68 68.7656 134.634 68.7206C133.949 68.7849 133.402 68.8685 132.993 68.9716C132.629 69.0735 132.177 69.2701 131.636 69.5612L131.026 69.8542C130.44 70.1927 129.923 70.5525 129.476 70.9335C129.252 71.124 128.584 71.8107 127.471 72.9938C127.07 73.4197 126.784 73.8195 126.61 74.1933C126.567 74.2867 126.546 74.3795 126.549 74.4718C126.596 74.5628 126.667 74.6302 126.76 74.6739L127.308 74.6594ZM129.498 79.7237L129.424 79.518C129.335 79.6127 129.292 79.6831 129.293 79.7292L129.436 80.0022L129.498 79.7237ZM140.179 81.449C140.132 81.4502 140.109 81.4277 140.108 81.3816C140.06 81.2906 140.058 81.2214 140.103 81.1741C140.143 80.9884 140.162 80.8034 140.157 80.6189C140.197 80.3871 140.192 80.2027 140.142 80.0655C140.097 80.0667 140.074 80.0443 140.072 79.9982C140.026 79.9994 140.003 80 140.003 80C140.048 79.9527 140.071 79.929 140.071 79.929C140.159 79.8344 140.275 79.8775 140.417 80.0583L140.489 80.1948L140.491 80.264L140.426 80.4042L140.496 80.4715L140.432 80.6117C140.434 80.7039 140.458 80.7725 140.505 80.8174C140.508 80.9096 140.486 80.9794 140.442 81.0267L140.312 81.307C140.313 81.3531 140.268 81.3774 140.177 81.3798L140.179 81.449ZM139.665 82.8469C139.62 82.8481 139.597 82.8257 139.595 82.7795C139.549 82.7808 139.527 82.7814 139.527 82.7814C139.526 82.7352 139.548 82.7116 139.594 82.7104C139.592 82.6643 139.615 82.6406 139.66 82.6394L139.794 82.4974L139.783 82.0824C139.782 82.0363 139.804 82.0126 139.85 82.0114L139.848 81.9422C139.847 81.8961 139.87 81.8725 139.915 81.8713C139.961 81.87 139.985 81.8925 139.986 81.9386C139.986 81.9386 139.986 81.9617 139.988 82.0078C139.988 82.0078 139.964 82.0084 139.918 82.0096C139.921 82.1018 139.946 82.1704 139.993 82.2153L139.994 82.2845C139.999 82.4689 139.889 82.6334 139.664 82.7777L139.665 82.8469ZM136.044 83.4271C136.042 83.3349 136.017 83.2894 135.972 83.2906L135.974 83.3598C136.019 83.3585 136.043 83.381 136.044 83.4271ZM123.265 85.426C123.265 85.426 123.242 85.4266 123.196 85.4278C123.196 85.4278 123.196 85.4047 123.194 85.3586L123.13 85.4988L123.265 85.426ZM129.82 89.4752C129.957 89.4716 130.025 89.4467 130.024 89.4006L129.884 89.335L129.82 89.4752ZM145.71 90.509C145.525 90.4216 145.341 90.3803 145.158 90.3852L144.544 90.4706C144.451 90.4731 144.405 90.4282 144.403 90.3359C144.4 90.2437 144.444 90.1964 144.536 90.194C144.536 90.194 144.513 90.1946 144.467 90.1958C144.467 90.1958 144.466 90.1727 144.465 90.1266L143.915 90.0719C143.687 90.078 143.501 89.9675 143.358 89.7406C143.307 89.5573 143.146 89.5154 142.874 89.6149C142.784 89.6634 142.693 89.6658 142.6 89.6221C142.507 89.5784 142.46 89.5335 142.459 89.4874C142.409 89.3503 142.36 89.1901 142.309 89.0068C142.259 88.8236 142.186 88.687 142.093 88.5972C142.093 88.5972 142.092 88.5742 142.091 88.5281C142.09 88.4819 142.112 88.4352 142.156 88.3879C142.245 88.2933 142.313 88.2914 142.362 88.3825L142.636 88.3752L142.771 88.3024C142.817 88.3012 142.817 88.2782 142.769 88.2333C142.768 88.1871 142.744 88.1416 142.698 88.0967C142.512 88.0093 142.351 87.9674 142.214 87.9711C142.123 87.9735 142.054 87.9983 142.01 88.0457C141.92 88.0942 141.875 88.1415 141.876 88.1876L141.759 88.9521C141.763 89.0905 141.696 89.1615 141.559 89.1651C141.422 89.1687 141.26 89.1268 141.075 89.0394C140.846 89.0455 140.776 88.9781 140.864 88.8373C140.948 88.5582 140.92 88.3513 140.78 88.2166C140.732 88.1717 140.662 88.1043 140.568 88.0145C140.473 87.8786 140.469 87.7403 140.558 87.5995C140.557 87.5534 140.509 87.4854 140.415 87.3956L139.99 86.8531C139.799 86.5812 139.815 86.3039 140.036 86.0212C140.036 86.0212 140.258 85.7846 140.704 85.3114C140.748 85.2641 140.838 85.2155 140.975 85.1658C141.065 85.1173 141.132 85.0463 141.175 84.9528C141.264 84.8582 141.398 84.7393 141.578 84.5961C141.757 84.4529 141.867 84.3116 141.91 84.172C141.952 84.0786 142.041 83.9378 142.172 83.7498C142.351 83.5605 142.461 83.396 142.503 83.2565C142.5 83.1643 142.636 83.1145 142.911 83.1073C143.231 83.0988 143.415 83.1632 143.465 83.3003C143.512 83.3452 143.536 83.4138 143.538 83.506C143.541 83.5982 143.544 83.7135 143.548 83.8519C143.551 83.9902 143.531 84.1061 143.488 84.1995L143.098 85.0405L143.035 85.2498C143.043 85.5265 143.162 85.731 143.395 85.8633C143.622 85.8111 143.807 85.8985 143.95 86.1255L144.226 86.1874C144.362 86.1377 144.521 86.0873 144.702 86.0364C144.93 85.9842 145.112 85.9564 145.249 85.9527C145.386 85.9491 145.548 85.991 145.733 86.0784C145.825 86.1221 145.964 86.1646 146.147 86.2059C146.331 86.201 146.49 86.1968 146.628 86.1932L146.902 86.1859C146.951 86.3231 147.021 86.3443 147.11 86.2497L147.176 86.1787L147.656 86.166C147.747 86.1636 147.838 86.1151 147.927 86.0204C148.011 85.7413 148.17 85.6679 148.402 85.8002C148.633 85.8864 148.815 85.8585 148.948 85.7166C149.083 85.6207 149.311 85.5686 149.631 85.5601C149.904 85.5529 150.108 85.4322 150.238 85.198C150.281 85.0584 150.439 84.985 150.713 84.9778C150.76 85.0227 150.806 85.0445 150.852 85.0433C150.898 85.0421 150.921 85.0646 150.922 85.1107C150.923 85.1568 150.926 85.249 150.929 85.3874C150.978 85.4784 151.048 85.5688 151.142 85.6586L151.617 85.4384C151.663 85.4372 151.685 85.4136 151.684 85.3674C151.683 85.3213 151.659 85.2989 151.613 85.3001C151.474 85.2115 151.403 85.1441 151.402 85.098C151.4 85.0058 151.421 84.936 151.466 84.8887C151.509 84.7952 151.577 84.7473 151.668 84.7449L151.942 84.7376C152.125 84.7328 152.285 84.7516 152.424 84.7941C152.562 84.8366 152.723 84.8555 152.906 84.8506C152.997 84.8482 153.042 84.8239 153.041 84.7778C153.04 84.7317 153.015 84.6632 152.966 84.5721C152.964 84.4799 152.985 84.4101 153.03 84.3628C153.211 84.3119 153.416 84.2142 153.641 84.0698C153.864 83.8793 154.067 83.7817 154.25 83.7768C154.341 83.7744 154.431 83.6798 154.517 83.4929C154.559 83.3533 154.626 83.2824 154.717 83.2799C154.809 83.2775 154.923 83.2976 155.062 83.3401C155.156 83.4299 155.248 83.4736 155.34 83.4712L155.544 83.3965C155.544 83.3965 155.588 83.3492 155.678 83.2546C155.899 82.9719 156.099 82.7589 156.278 82.6157C156.502 82.4252 156.682 82.2821 156.817 82.1862C156.905 82.0916 156.857 82.0005 156.672 81.9131L156.459 81.6419C156.316 81.4149 156.154 81.373 155.975 81.5162C155.75 81.6606 155.567 81.6193 155.423 81.3924C155.33 81.3026 155.259 81.2583 155.214 81.2595C155.03 81.2182 154.66 81.0434 154.102 80.7351C153.546 80.4729 153.109 80.346 152.789 80.3544C152.47 80.409 152.191 80.2318 151.951 79.8228C151.95 79.7767 151.927 79.7542 151.881 79.7554C151.835 79.7567 151.721 79.7827 151.54 79.8337C151.403 79.8373 151.31 79.7936 151.262 79.7026C151.167 79.5666 150.959 79.4568 150.636 79.373C150.358 79.2419 150.173 79.1315 150.079 79.0416C150.125 79.0866 149.799 78.8414 149.099 78.3061C148.868 78.2199 148.752 78.1538 148.751 78.1077C148.703 78.0166 148.609 77.9268 148.469 77.8382C148.33 77.7496 148.213 77.6604 148.119 77.5706L147.906 77.2993C147.859 77.2544 147.765 77.1646 147.625 77.0299C147.528 76.8478 147.388 76.7362 147.204 76.6949C147.061 76.4679 146.827 76.2665 146.502 76.0905C146.365 76.048 146.247 75.9126 146.149 75.6845C146.006 75.4575 145.91 75.3216 145.864 75.2767C145.677 75.0971 145.533 74.8701 145.435 74.5958C145.433 74.5036 145.261 74.0928 144.922 73.3634L144.85 73.2269C144.893 73.1335 144.913 72.9945 144.908 72.8101C144.898 72.4411 144.843 72.0734 144.742 71.7069C144.693 71.5698 144.598 71.4339 144.457 71.2991C144.361 71.1171 144.265 70.9581 144.17 70.8222C144.118 70.5928 144.067 70.3634 144.015 70.1341C143.964 69.9047 143.912 69.6753 143.861 69.446L143.771 68.6869C143.759 68.2258 143.841 67.8314 144.015 67.5037C143.968 67.4127 143.987 67.2968 144.075 67.1561C144.163 67.0153 144.205 66.8758 144.202 66.7374C144.197 66.5529 144.239 66.4365 144.329 66.3879C144.419 66.2933 144.578 66.2891 144.809 66.3752C144.993 66.3704 145.082 66.2988 145.079 66.1605C145.123 66.1132 145.144 66.0434 145.141 65.9512L145.211 65.9493L146.874 63.9672C147.008 63.8253 147.187 63.7052 147.413 63.6069C147.505 63.6045 147.596 63.556 147.685 63.4613C147.815 63.181 148.015 62.9911 148.288 62.8916C148.558 62.746 148.739 62.649 148.829 62.6004C149.1 62.501 149.282 62.45 149.373 62.4476C149.739 62.438 149.965 62.3166 150.05 62.0836C150.139 61.989 150.207 61.9411 150.252 61.9399L151.211 61.8453C151.393 61.8405 151.552 61.7671 151.685 61.6251C151.863 61.4358 152.069 61.4304 152.302 61.6088C152.443 61.7436 152.556 61.6944 152.641 61.4614C152.686 61.4141 152.777 61.4117 152.916 61.4542C152.962 61.453 152.985 61.4754 152.986 61.5216L153.125 61.5871C153.171 61.5859 153.195 61.6545 153.199 61.7928C153.201 61.885 153.248 61.9299 153.34 61.9275C153.384 61.8802 153.406 61.8335 153.405 61.7874C153.403 61.6951 153.423 61.6254 153.468 61.578C153.464 61.4397 153.509 61.3693 153.6 61.3669C153.876 61.4519 154.105 61.4689 154.287 61.418C154.379 61.4155 154.47 61.4362 154.563 61.4799C154.7 61.4763 154.814 61.4502 154.904 61.4017L154.973 61.3999C155.202 61.3938 155.478 61.4788 155.803 61.6548C156.127 61.7847 156.379 61.8472 156.563 61.8424C156.609 61.8873 156.634 61.9559 156.636 62.0481C156.639 62.1403 156.687 62.2083 156.779 62.252C157.195 62.4256 157.45 62.5342 157.542 62.5779C157.818 62.6168 158.074 62.7946 158.31 63.1114C158.312 63.1575 158.36 63.2255 158.453 63.3153C158.829 63.6745 159.024 64.177 159.041 64.8226C159.046 65.007 158.945 65.5173 158.738 66.3534C158.56 66.5427 158.425 66.6616 158.335 66.7101C158.202 66.8521 158.043 66.9024 157.859 66.8612C157.534 66.6851 157.189 66.602 156.824 66.6116C156.138 66.6298 155.636 66.6661 155.317 66.7207C155.134 66.7255 154.884 66.7782 154.566 66.8789C154.248 66.9796 153.998 67.0324 153.815 67.0372C153.679 67.0869 153.521 67.1373 153.339 67.1882C153.203 67.238 153.068 67.2877 152.931 67.3374L151.912 67.7105C151.822 67.759 151.686 67.8087 151.504 67.8597C151.322 67.9106 151.119 68.0083 150.894 68.1527L149.474 68.9516C149.385 69.0462 149.228 69.1888 149.004 69.3793C148.825 69.5225 148.623 69.6432 148.397 69.7415L148.329 69.8125C147.932 70.3306 147.829 70.7947 148.023 71.2049C148.359 71.8421 148.623 72.2735 148.811 72.4993C149.379 73.2226 149.942 73.7846 150.501 74.1851C151.018 74.6791 151.577 75.0566 152.177 75.3176C152.734 75.5798 153.151 75.7995 153.43 75.9767L154.126 76.3736C154.404 76.5047 154.752 76.6801 155.169 76.8998C155.631 77.0722 156.003 77.2701 156.282 77.4934L158.433 78.4056C158.804 78.5804 159.015 78.7825 159.067 79.0119C159.116 79.149 159.233 79.2613 159.419 79.3487C159.604 79.4361 159.743 79.5247 159.837 79.6145C159.932 79.7504 160.139 79.8142 160.46 79.8057C160.642 79.8009 160.829 79.9344 161.019 80.2063C161.162 80.4332 161.261 80.6844 161.313 80.9599C161.41 81.1881 161.507 81.3932 161.604 81.5752L161.607 81.7136C161.617 82.1286 161.47 82.594 161.163 83.1097L160.37 84.3073C160.193 84.4966 160.014 84.6629 159.835 84.806C159.701 84.948 159.59 85.0663 159.501 85.1609C159.456 85.2083 159.344 85.3035 159.165 85.4467C159.03 85.5425 158.966 85.6827 158.97 85.8672C158.836 85.963 158.679 86.1286 158.503 86.364C158.37 86.5521 158.213 86.6716 158.032 86.7226C157.804 86.7747 157.579 86.9191 157.357 87.1557C156.37 87.874 155.488 88.2895 154.713 88.4023L154.442 88.5479C154.309 88.6898 154.105 88.7875 153.833 88.8409C153.559 88.8942 153.355 88.9458 153.219 88.9955L151.788 89.3794L150.633 89.8252C150.452 89.8762 150.269 89.9041 150.087 89.9089C149.902 89.8676 149.719 89.8724 149.538 89.9234L149.264 89.9306C149.037 90.0289 148.786 90.0586 148.511 90.0197C148.42 90.0683 148.33 90.1168 148.24 90.1653C148.15 90.2139 148.037 90.2399 147.899 90.2436C147.717 90.2484 147.443 90.3017 147.08 90.4036C146.762 90.5043 146.534 90.5104 146.394 90.4217C146.21 90.3805 146.027 90.3853 145.846 90.4362C145.847 90.4823 145.801 90.5066 145.71 90.509ZM144.932 65.8182C144.931 65.7721 144.953 65.7485 144.999 65.7473L145.071 65.8838L144.932 65.8182ZM145.071 65.8838L145.14 65.882L145.141 65.9512L145.073 65.953L145.071 65.8838ZM157.029 82.4575L156.962 82.5284L157.031 82.5266L157.029 82.4575ZM146.9 86.1168C146.898 86.0245 146.942 85.9772 147.034 85.9748C147.034 85.9748 147.08 86.0197 147.174 86.1095L146.9 86.1168ZM146.902 86.1859C146.902 86.1859 146.879 86.1866 146.833 86.1878C146.833 86.1878 146.832 86.1647 146.831 86.1186L146.9 86.1168L146.902 86.1859ZM143.059 88.7794L142.991 88.8504L143.06 88.8486L143.059 88.7794ZM167.741 89.9271C167.556 89.8397 167.372 89.7984 167.188 89.8032L166.574 89.8887C166.482 89.8911 166.435 89.8462 166.433 89.754C166.43 89.6617 166.475 89.6144 166.566 89.612C166.566 89.612 166.543 89.6126 166.498 89.6138C166.498 89.6138 166.498 89.5908 166.496 89.5446L165.945 89.49C165.717 89.496 165.531 89.3855 165.388 89.1586C165.338 88.9753 165.176 88.9334 164.905 89.0329C164.814 89.0815 164.723 89.0839 164.63 89.0402C164.538 88.9965 164.491 88.9516 164.489 88.9054C164.441 88.7683 164.39 88.6081 164.339 88.4249C164.289 88.2416 164.218 88.1051 164.123 88.0153C164.123 88.0153 164.122 87.9922 164.121 87.9461C164.12 87.9 164.142 87.8533 164.187 87.8059C164.276 87.7113 164.344 87.7095 164.392 87.8005L164.667 87.7933L164.801 87.7205C164.848 87.7193 164.847 87.6962 164.8 87.6513C164.798 87.6052 164.775 87.5597 164.728 87.5148C164.543 87.4274 164.381 87.3855 164.244 87.3891C164.153 87.3915 164.085 87.4164 164.04 87.4637C163.95 87.5122 163.905 87.5596 163.907 87.6057L163.789 88.3702C163.793 88.5085 163.726 88.5795 163.589 88.5831C163.452 88.5868 163.291 88.5449 163.105 88.4575C162.877 88.4635 162.807 88.3961 162.894 88.2554C162.978 87.9763 162.951 87.7694 162.81 87.6347C162.763 87.5897 162.693 87.5224 162.599 87.4326C162.504 87.2966 162.5 87.1583 162.588 87.0175C162.587 86.9714 162.539 86.9035 162.445 86.8136L162.02 86.2711C161.83 85.9993 161.845 85.722 162.066 85.4393C162.066 85.4393 162.29 85.2027 162.735 84.7294C162.779 84.6821 162.869 84.6336 163.005 84.5838C163.095 84.5353 163.162 84.4643 163.205 84.3709C163.295 84.2762 163.428 84.1573 163.608 84.0142C163.787 83.871 163.897 83.7296 163.94 83.5901C163.984 83.4966 164.071 83.3559 164.204 83.1678C164.381 82.9785 164.491 82.8141 164.534 82.6745C164.531 82.5823 164.668 82.5326 164.941 82.5253C165.261 82.5169 165.446 82.5812 165.495 82.7183C165.542 82.7633 165.567 82.8318 165.57 82.9241C165.572 83.0163 165.575 83.1316 165.579 83.2699C165.582 83.4083 165.562 83.5241 165.519 83.6176L165.129 84.4585L165.066 84.6678C165.073 84.9445 165.193 85.149 165.425 85.2813C165.652 85.2292 165.837 85.3166 165.98 85.5435L166.257 85.6055C166.392 85.5557 166.551 85.5054 166.732 85.4544C166.96 85.4023 167.143 85.3744 167.28 85.3708C167.416 85.3671 167.578 85.409 167.763 85.4964C167.856 85.5401 167.994 85.5826 168.179 85.6239C168.361 85.6191 168.521 85.6149 168.659 85.6112L168.932 85.604C168.982 85.7411 169.051 85.7624 169.14 85.6677L169.207 85.5967L169.686 85.5841C169.779 85.5816 169.869 85.5331 169.957 85.4385C170.041 85.1594 170.2 85.086 170.432 85.2183C170.663 85.3045 170.845 85.2766 170.979 85.1346C171.114 85.0388 171.341 84.9866 171.661 84.9782C171.935 84.9709 172.138 84.8502 172.269 84.616C172.311 84.4764 172.469 84.403 172.744 84.3958C172.79 84.4407 172.837 84.4626 172.882 84.4614C172.928 84.4601 172.952 84.4826 172.953 84.5287C172.954 84.5748 172.957 84.6671 172.96 84.8054C173.008 84.8964 173.08 84.9868 173.173 85.0767L173.648 84.8565C173.693 84.8553 173.716 84.8316 173.714 84.7855C173.713 84.7394 173.689 84.7169 173.644 84.7181C173.505 84.6295 173.435 84.5621 173.433 84.516C173.431 84.4238 173.451 84.354 173.496 84.3067C173.54 84.2133 173.607 84.1653 173.698 84.1629L173.973 84.1557C174.155 84.1509 174.316 84.1697 174.455 84.2122C174.592 84.2547 174.753 84.2735 174.936 84.2687C175.028 84.2663 175.072 84.242 175.071 84.1959C175.07 84.1498 175.045 84.0812 174.998 83.9902C174.995 83.8979 175.017 83.8282 175.06 83.7808C175.243 83.7299 175.446 83.6322 175.671 83.4879C175.894 83.2974 176.098 83.1997 176.281 83.1949C176.372 83.1924 176.461 83.0978 176.547 82.9109C176.59 82.7714 176.656 82.7004 176.748 82.698C176.84 82.6956 176.955 82.7156 177.092 82.7581C177.187 82.8479 177.279 82.8916 177.371 82.8892L177.574 82.8146C177.574 82.8146 177.619 82.7673 177.708 82.6726C177.929 82.3899 178.129 82.1769 178.309 82.0338C178.533 81.8433 178.712 81.7001 178.847 81.6042C178.936 81.5096 178.888 81.4186 178.702 81.3312L178.489 81.0599C178.346 80.833 178.185 80.7911 178.006 80.9343C177.781 81.0786 177.597 81.0374 177.454 80.8104C177.36 80.7206 177.291 80.6763 177.244 80.6775C177.061 80.6362 176.69 80.4614 176.133 80.1531C175.578 79.8909 175.14 79.764 174.819 79.7725C174.5 79.8271 174.222 79.6498 173.982 79.2408C173.981 79.1947 173.958 79.1723 173.911 79.1735C173.866 79.1747 173.753 79.2008 173.57 79.2517C173.434 79.2553 173.341 79.2116 173.293 79.1206C173.198 78.9847 172.989 78.8748 172.667 78.7911C172.389 78.66 172.203 78.5495 172.109 78.4597C172.156 78.5046 171.83 78.2594 171.13 77.7242C170.899 77.638 170.783 77.5718 170.781 77.5257C170.733 77.4347 170.639 77.3449 170.5 77.2563C170.361 77.1676 170.244 77.0784 170.149 76.9886L169.937 76.7174C169.89 76.6725 169.797 76.5826 169.656 76.4479C169.56 76.2659 169.419 76.1542 169.235 76.1129C169.092 75.886 168.858 75.6845 168.534 75.5085C168.395 75.466 168.277 75.3307 168.18 75.1025C168.037 74.8756 167.942 74.7396 167.894 74.6947C167.707 74.5151 167.564 74.2882 167.465 74.0139C167.463 73.9217 167.292 73.5109 166.953 72.7815L166.881 72.6449C166.924 72.5515 166.944 72.4126 166.939 72.2281C166.929 71.8592 166.873 71.4915 166.773 71.125C166.724 70.9878 166.628 70.8519 166.488 70.7172C166.391 70.5351 166.295 70.3761 166.201 70.2402C166.149 70.0109 166.097 69.7815 166.046 69.5521C165.994 69.3228 165.942 69.0934 165.891 68.864L165.803 68.1049C165.791 67.6438 165.872 67.2494 166.046 66.9218C165.998 66.8308 166.018 66.7149 166.106 66.5741C166.193 66.4333 166.236 66.2938 166.232 66.1554C166.227 65.971 166.27 65.8545 166.36 65.806C166.449 65.7113 166.61 65.7071 166.841 65.7933C167.023 65.7885 167.112 65.7169 167.109 65.5785C167.154 65.5312 167.175 65.4614 167.173 65.3692L167.241 65.3674L168.904 63.3853C169.038 63.2433 169.219 63.1232 169.445 63.0249C169.536 63.0225 169.626 62.974 169.715 62.8793C169.845 62.599 170.046 62.4091 170.318 62.3097C170.589 62.1641 170.769 62.067 170.859 62.0185C171.131 61.919 171.312 61.8681 171.404 61.8657C171.77 61.856 171.995 61.7347 172.08 61.5017C172.17 61.407 172.237 61.3591 172.283 61.3579L173.241 61.2634C173.424 61.2585 173.582 61.1851 173.716 61.0432C173.894 60.8539 174.1 60.8485 174.333 61.0269C174.473 61.1616 174.586 61.1125 174.672 60.8795C174.716 60.8322 174.808 60.8297 174.946 60.8722C174.992 60.871 175.016 60.8935 175.017 60.9396L175.155 61.0051C175.201 61.0039 175.226 61.0725 175.23 61.2108C175.232 61.3031 175.279 61.348 175.371 61.3456C175.415 61.2982 175.437 61.2515 175.435 61.2054C175.433 61.1132 175.454 61.0434 175.498 60.9961C175.494 60.8577 175.539 60.7874 175.63 60.7849C175.907 60.8699 176.136 60.8869 176.318 60.836C176.409 60.8336 176.502 60.8542 176.594 60.8979C176.731 60.8943 176.845 60.8682 176.935 60.8197L177.003 60.8179C177.232 60.8119 177.509 60.8968 177.834 61.0728C178.157 61.2027 178.41 61.2653 178.593 61.2604C178.64 61.3053 178.665 61.3739 178.667 61.4661C178.67 61.5584 178.717 61.6263 178.809 61.67C179.226 61.8436 179.48 61.9523 179.573 61.996C179.848 62.0348 180.105 62.2127 180.342 62.5294C180.343 62.5755 180.39 62.6435 180.484 62.7333C180.859 63.0926 181.056 63.595 181.072 64.2406C181.076 64.4251 180.975 64.9353 180.769 65.7714C180.591 65.9607 180.457 66.0796 180.367 66.1282C180.233 66.2701 180.074 66.3205 179.89 66.2792C179.565 66.1032 179.22 66.02 178.854 66.0297C178.168 66.0478 177.666 66.0841 177.347 66.1387C177.165 66.1435 176.914 66.1963 176.597 66.297C176.28 66.3977 176.029 66.4504 175.846 66.4552C175.711 66.505 175.551 66.5553 175.37 66.6063C175.234 66.656 175.098 66.7057 174.962 66.7555L173.942 67.1285C173.852 67.177 173.716 67.2268 173.535 67.2777C173.353 67.3287 173.149 67.4263 172.924 67.5707L171.505 68.3696C171.415 68.4643 171.259 68.6068 171.035 68.7973C170.856 68.9405 170.653 69.0612 170.427 69.1595L170.361 69.2305C169.962 69.7486 169.86 70.2128 170.053 70.623C170.39 71.2601 170.653 71.6916 170.841 71.9173C171.409 72.6407 171.972 73.2026 172.532 73.6032C173.048 74.0971 173.607 74.4746 174.209 74.7356C174.764 74.9978 175.181 75.2175 175.461 75.3947L176.157 75.7916C176.435 75.9227 176.782 76.0981 177.199 76.3179C177.661 76.4902 178.033 76.6881 178.314 76.9114L180.464 77.8237C180.834 77.9985 181.046 78.2006 181.097 78.4299C181.147 78.5671 181.264 78.6793 181.449 78.7667C181.634 78.8541 181.774 78.9427 181.867 79.0325C181.963 79.1685 182.17 79.2322 182.49 79.2238C182.673 79.2189 182.86 79.3524 183.049 79.6243C183.193 79.8512 183.291 80.1025 183.343 80.3779C183.441 80.6061 183.538 80.8112 183.634 80.9932L183.638 81.1316C183.649 81.5466 183.5 82.012 183.194 82.5277L182.401 83.7254C182.223 83.9147 182.045 84.0809 181.865 84.2241C181.732 84.366 181.621 84.4843 181.531 84.579C181.487 84.6263 181.375 84.7216 181.195 84.8647C181.061 84.9606 180.996 85.1007 181.001 85.2852C180.866 85.381 180.711 85.5467 180.533 85.7821C180.401 85.9702 180.244 86.0897 180.062 86.1406C179.835 86.1928 179.61 86.3372 179.387 86.5738C178.4 87.292 177.519 87.7076 176.743 87.8203L176.473 87.9659C176.339 88.1079 176.136 88.2055 175.863 88.2589C175.59 88.3123 175.385 88.3638 175.25 88.4136L173.818 88.7975L172.663 89.2433C172.482 89.2942 172.3 89.3221 172.117 89.3269C171.933 89.2857 171.75 89.2905 171.568 89.3414L171.294 89.3487C171.068 89.4469 170.818 89.4766 170.542 89.4378C170.452 89.4863 170.362 89.5348 170.271 89.5834C170.181 89.6319 170.067 89.658 169.93 89.6616C169.747 89.6664 169.474 89.7198 169.111 89.8217C168.793 89.9224 168.564 89.9284 168.425 89.8398C168.241 89.7985 168.058 89.8033 167.876 89.8543C167.877 89.9004 167.833 89.9247 167.741 89.9271ZM166.962 65.2363C166.961 65.1902 166.984 65.1665 167.03 65.1653L167.102 65.3018L166.962 65.2363ZM167.102 65.3018L167.171 65.3L167.173 65.3692L167.103 65.371L167.102 65.3018ZM179.059 81.8755L178.993 81.9465L179.061 81.9447L179.059 81.8755ZM168.931 85.5348C168.928 85.4426 168.973 85.3953 169.064 85.3928C169.064 85.3928 169.112 85.4378 169.205 85.5276L168.931 85.5348ZM168.932 85.604C168.932 85.604 168.909 85.6046 168.864 85.6058C168.864 85.6058 168.864 85.5827 168.862 85.5366L168.931 85.5348L168.932 85.604ZM165.089 88.1974L165.021 88.2684L165.091 88.2666L165.089 88.1974Z" fill="#D80027"/>
</g>
<defs>
<clipPath id="clip0_108_4135">
<rect width="210.351" height="108.05" fill="white"/>
</clipPath>
</defs>
</svg>
