<svg width="23" height="31" viewBox="0 0 23 31" fill="none" xmlns="http://www.w3.org/2000/svg">
<path d="M11.0363 5.88325C12.3349 8.22122 11.6976 8.47442 10.1271 9.3467C8.55669 10.219 6.59178 12.3449 5.29318 10.0069C4.69751 6.09905 2.19058 3.26033 2.90146 2.86548C3.61234 2.47063 9.73766 3.54529 11.0363 5.88325Z" fill="#27792E"/>
<path d="M14.9058 7.10125C14.9058 9.77565 14.2257 9.68755 12.4293 9.68755C10.6329 9.68755 7.88287 10.5919 7.88287 7.91749C7.88287 5.24309 11.6161 0.00268555 12.4293 0.00268555C13.2425 0.00268555 14.9058 4.42685 14.9058 7.10125Z" fill="#27792E"/>
<path d="M12.486 5.37438C10.9392 7.55608 11.5449 7.87755 13.0104 8.91655C14.4759 9.95555 16.1962 12.2838 17.743 10.1021C18.763 6.28299 21.5657 3.73586 20.9023 3.26554C20.2389 2.79522 14.0328 3.19268 12.486 5.37438Z" fill="#27792E"/>
<path d="M14.9058 8.55657C14.9058 11.231 14.2257 11.1429 12.4293 11.1429C10.6329 11.1429 7.88287 12.0472 7.88287 9.37282C7.88287 6.69842 11.6161 1.45801 12.4293 1.45801C13.2425 1.45801 14.9058 5.88217 14.9058 8.55657Z" fill="#44944A"/>
<path d="M7.80764 9.48988C9.81778 11.3014 10.0902 10.8659 10.9848 9.87319C11.8794 8.88049 13.9286 7.97342 11.9184 6.16193C9.90829 4.35045 4.1104 2.86386 3.70545 3.31322C3.3005 3.76258 5.7975 7.67839 7.80764 9.48988Z" fill="#44944A"/>
<path d="M15.5469 9.96905C13.4851 11.827 13.1869 11.3596 12.2198 10.2864C11.2527 9.2132 9.07502 8.19865 11.1368 6.34066C13.1985 4.48266 19.2483 3.0722 19.6861 3.55799C20.1238 4.04378 17.6086 8.11106 15.5469 9.96905Z" fill="#44944A"/>
<path d="M22.9999 15.3207C22.9999 19.2654 15.5221 30.9994 11.2261 30.9994C6.93007 30.9994 -6.10352e-05 19.2654 -6.10352e-05 15.3207C-6.10352e-05 11.376 2.83681 6.37653 11.2261 7.74849C19.7061 5.64156 22.9999 11.376 22.9999 15.3207Z" fill="#A51B34"/>
<path d="M22.5357 15.2703C22.5357 19.0267 15.4615 30.2007 11.3973 30.2007C7.33318 30.2007 0.7771 19.0267 0.7771 15.2703C0.7771 11.5139 3.46085 6.75304 11.3973 8.05952C19.4196 6.05315 22.5357 11.5139 22.5357 15.2703Z" fill="#D80027"/>
<path d="M12.5394 11.8755C12.5394 12.1048 12.1719 12.7868 11.9608 12.7868C11.7497 12.7868 11.4091 12.1048 11.4091 11.8755C11.4091 11.6462 11.5485 11.3557 11.9608 11.4354C12.3776 11.313 12.5394 11.6462 12.5394 11.8755Z" fill="#E8B42D"/>
<path d="M12.2569 11.8603C12.2569 11.9779 12.0731 12.3276 11.9676 12.3276C11.862 12.3276 11.6917 11.9779 11.6917 11.8603C11.6917 11.7427 11.7614 11.5937 11.9676 11.6346C12.1759 11.5718 12.2569 11.7427 12.2569 11.8603Z" fill="#F8F8FA"/>
<path d="M4.84259 10.4212C4.70222 10.6024 3.9941 10.9166 3.82718 10.7874C3.66025 10.6581 3.80854 9.91038 3.94891 9.72911C4.08929 9.54785 4.37742 9.40347 4.65457 9.71895C5.05904 9.87729 4.98296 10.2399 4.84259 10.4212Z" fill="#E8B42D"/>
<path d="M4.62848 10.2361C4.55649 10.3291 4.19708 10.4931 4.11362 10.4284C4.03016 10.3638 4.10965 9.98302 4.18164 9.89007C4.25363 9.79711 4.39998 9.72198 4.53792 9.88052C4.74112 9.95845 4.70047 10.1431 4.62848 10.2361Z" fill="#F8F8FA"/>
<path d="M8.11394 11.3823C8.05293 11.6033 7.51719 12.1629 7.31368 12.1067C7.11017 12.0506 6.96338 11.3025 7.02439 11.0815C7.08541 10.8605 7.29712 10.6176 7.67332 10.8041C8.10762 10.797 8.17496 11.1614 8.11394 11.3823Z" fill="#E8B42D"/>
<path d="M7.84563 11.2924C7.81434 11.4058 7.54415 11.694 7.44239 11.6659C7.34064 11.6378 7.26957 11.2554 7.30086 11.142C7.33215 11.0287 7.439 10.9036 7.62682 10.9979C7.84439 10.9928 7.87692 11.1791 7.84563 11.2924Z" fill="#F8F8FA"/>
<path d="M16.2987 11.0793C16.3636 11.2992 16.2041 12.0573 16.0017 12.1171C15.7992 12.1768 15.2795 11.6191 15.2146 11.3992C15.1497 11.1793 15.2012 10.8612 15.6192 10.821C15.9843 10.5856 16.2338 10.8594 16.2987 11.0793Z" fill="#E8B42D"/>
<path d="M16.0234 11.1447C16.0567 11.2574 15.9794 11.6449 15.8782 11.6748C15.777 11.7046 15.5147 11.4174 15.4814 11.3046C15.4481 11.1919 15.4728 11.0292 15.6821 11.0101C15.8642 10.8909 15.9902 11.0319 16.0234 11.1447Z" fill="#F8F8FA"/>
<path d="M11.9743 22.9314C11.9743 23.1607 11.6068 23.8427 11.3957 23.8427C11.1846 23.8427 10.844 23.1607 10.844 22.9314C10.844 22.7022 10.9834 22.4116 11.3957 22.4913C11.8124 22.3689 11.9743 22.7022 11.9743 22.9314Z" fill="#E8B42D"/>
<path d="M11.6917 22.9161C11.6917 23.0337 11.508 23.3834 11.4024 23.3834C11.2969 23.3834 11.1266 23.0337 11.1266 22.9161C11.1266 22.7986 11.1963 22.6496 11.4024 22.6905C11.6108 22.6277 11.6917 22.7986 11.6917 22.9161Z" fill="#F8F8FA"/>
<path d="M5.21135 21.1978C5.09251 21.3938 4.42474 21.7865 4.2442 21.6771C4.06365 21.5677 4.12589 20.8079 4.24473 20.6119C4.36357 20.4158 4.63341 20.2396 4.94465 20.5215C5.36451 20.6328 5.33019 21.0017 5.21135 21.1978Z" fill="#E8B42D"/>
<path d="M4.9777 21.0382C4.91675 21.1388 4.57834 21.3426 4.48807 21.2879C4.39779 21.2332 4.43345 20.8458 4.49439 20.7453C4.55533 20.6447 4.69218 20.5534 4.84727 20.6953C5.05802 20.7496 5.03864 20.9377 4.9777 21.0382Z" fill="#F8F8FA"/>
<path d="M18.088 21.3359C18.2284 21.5171 18.9365 21.8313 19.1034 21.702C19.2704 21.5728 19.1221 20.8251 18.9817 20.6438C18.8413 20.4625 18.5532 20.3181 18.276 20.6336C17.8716 20.792 17.9476 21.1546 18.088 21.3359Z" fill="#E8B42D"/>
<path d="M18.3022 21.1508C18.3742 21.2437 18.7336 21.4077 18.817 21.3431C18.9005 21.2785 18.821 20.8977 18.749 20.8047C18.677 20.7118 18.5307 20.6366 18.3927 20.7952C18.1895 20.8731 18.2302 21.0578 18.3022 21.1508Z" fill="#F8F8FA"/>
<path d="M8.50255 22.5089C8.44154 22.7299 7.9058 23.2895 7.70229 23.2333C7.49878 23.1771 7.35199 22.4291 7.413 22.2081C7.47402 21.9871 7.68574 21.7441 8.06193 21.9307C8.49623 21.9236 8.56357 22.2879 8.50255 22.5089Z" fill="#E8B42D"/>
<path d="M8.23418 22.419C8.20289 22.5323 7.9327 22.8206 7.83094 22.7925C7.72919 22.7644 7.65812 22.3819 7.68941 22.2686C7.7207 22.1553 7.82755 22.0302 8.01537 22.1245C8.23294 22.1194 8.26547 22.3057 8.23418 22.419Z" fill="#F8F8FA"/>
<path d="M15.8765 21.9245C15.9828 22.1276 15.9736 22.9023 15.7866 23.0002C15.5995 23.0981 14.9815 22.6519 14.8751 22.4488C14.7688 22.2457 14.7575 21.9236 15.1597 21.803C15.4721 21.5012 15.7701 21.7214 15.8765 21.9245Z" fill="#E8B42D"/>
<path d="M15.6191 22.0421C15.6736 22.1462 15.673 22.5413 15.5795 22.5902C15.486 22.6392 15.1729 22.4084 15.1184 22.3042C15.0638 22.2 15.0565 22.0357 15.2581 21.9763C15.4135 21.824 15.5645 21.9379 15.6191 22.0421Z" fill="#F8F8FA"/>
<path d="M12.2215 26.9935C12.2215 27.2228 11.854 27.9047 11.6429 27.9047C11.4318 27.9047 11.0912 27.2228 11.0912 26.9935C11.0912 26.7642 11.2306 26.4737 11.6429 26.5534C12.0596 26.4309 12.2215 26.7642 12.2215 26.9935Z" fill="#D80027"/>
<path d="M11.9389 26.9782C11.9389 27.0958 11.7552 27.4455 11.6496 27.4455C11.5441 27.4455 11.3738 27.0958 11.3738 26.9782C11.3738 26.8606 11.4435 26.7116 11.6496 26.7525C11.858 26.6897 11.9389 26.8606 11.9389 26.9782Z" fill="#F8F8FA"/>
<path d="M8.26232 26.4564C8.20131 26.6774 7.66557 27.237 7.46206 27.1808C7.25855 27.1246 7.11175 26.3766 7.17277 26.1556C7.23378 25.9346 7.4455 25.6916 7.8217 25.8782C8.256 25.871 8.32334 26.2354 8.26232 26.4564Z" fill="#D80027"/>
<path d="M7.99395 26.3665C7.96266 26.4798 7.69246 26.768 7.59071 26.7399C7.48895 26.7118 7.41788 26.3294 7.44917 26.2161C7.48046 26.1027 7.58731 25.9776 7.77514 26.0719C7.99271 26.0668 8.02524 26.2531 7.99395 26.3665Z" fill="#F8F8FA"/>
<path d="M15.6362 25.872C15.7426 26.0751 15.7334 26.8497 15.5463 26.9476C15.3593 27.0456 14.7412 26.5994 14.6349 26.3963C14.5285 26.1932 14.5173 25.8711 14.9195 25.7505C15.2319 25.4487 15.5299 25.6689 15.6362 25.872Z" fill="#D80027"/>
<path d="M15.3788 25.9896C15.4334 26.0937 15.4328 26.4888 15.3393 26.5377C15.2458 26.5867 14.9327 26.3559 14.8781 26.2517C14.8236 26.1476 14.8162 25.9832 15.0178 25.9238C15.1733 25.7715 15.3243 25.8854 15.3788 25.9896Z" fill="#F8F8FA"/>
<path d="M8.6848 17.0359C8.61104 17.253 8.04369 17.7805 7.84379 17.7126C7.64389 17.6447 7.54081 16.8894 7.61457 16.6723C7.68832 16.4552 7.9138 16.225 8.27852 16.4331C8.7125 16.4512 8.75855 16.8189 8.6848 17.0359Z" fill="#E8B42D"/>
<path d="M8.42217 16.9306C8.38435 17.042 8.09786 17.314 7.99791 17.28C7.89796 17.2461 7.84923 16.8602 7.88706 16.7488C7.92488 16.6375 8.03882 16.5188 8.22085 16.6239C8.43834 16.6315 8.45999 16.8193 8.42217 16.9306Z" fill="#F8F8FA"/>
<path d="M11.9767 17.5302C11.9761 17.7595 11.6067 18.4405 11.3956 18.4399C11.1845 18.4393 10.8458 17.7564 10.8464 17.5271C10.8471 17.2979 10.9873 17.0077 11.3993 17.0885C11.8164 16.9672 11.9774 17.301 11.9767 17.5302Z" fill="#E8B42D"/>
<path d="M11.6942 17.5141C11.6939 17.6317 11.5092 17.9809 11.4036 17.9806C11.298 17.9804 11.1287 17.6302 11.129 17.5126C11.1294 17.395 11.1995 17.2462 11.4055 17.2877C11.6141 17.2254 11.6945 17.3966 11.6942 17.5141Z" fill="#F8F8FA"/>
<path d="M2.29931 14.8719C2.15894 15.0531 1.45083 15.3673 1.2839 15.2381C1.11698 15.1088 1.26526 14.3611 1.40564 14.1798C1.54601 13.9985 1.83415 13.8542 2.1113 14.1696C2.51577 14.328 2.43969 14.6906 2.29931 14.8719Z" fill="#E8B42D"/>
<path d="M2.08521 14.6868C2.01322 14.7797 1.65381 14.9438 1.57035 14.8791C1.48688 14.8145 1.56638 14.4337 1.63837 14.3408C1.71035 14.2478 1.8567 14.1727 1.99465 14.3312C2.19785 14.4091 2.15719 14.5938 2.08521 14.6868Z" fill="#F8F8FA"/>
<path d="M5.1202 16.1801C5.03484 16.3929 4.43986 16.889 4.24392 16.8104C4.04797 16.7318 3.98578 15.9721 4.07113 15.7593C4.15649 15.5465 4.39406 15.3287 4.74702 15.5562C5.1794 15.5977 5.20555 15.9673 5.1202 16.1801Z" fill="#E8B42D"/>
<path d="M4.86366 16.0607C4.81989 16.1698 4.51914 16.426 4.42117 16.3867C4.3232 16.3474 4.29536 15.9594 4.33913 15.8503C4.3829 15.7412 4.50307 15.6288 4.67917 15.7435C4.89594 15.7628 4.90743 15.9516 4.86366 16.0607Z" fill="#F8F8FA"/>
<path d="M14.5263 17.4067C14.6 17.6238 15.1674 18.1513 15.3673 18.0834C15.5672 18.0155 15.6702 17.2602 15.5965 17.0431C15.5227 16.826 15.2973 16.5958 14.9325 16.8039C14.4986 16.822 14.4525 17.1897 14.5263 17.4067Z" fill="#E8B42D"/>
<path d="M14.7888 17.3014C14.8266 17.4127 15.1131 17.6847 15.2131 17.6508C15.313 17.6168 15.3618 17.2309 15.3239 17.1196C15.2861 17.0082 15.1722 16.8896 14.9902 16.9946C14.7727 17.0022 14.751 17.19 14.7888 17.3014Z" fill="#F8F8FA"/>
<path d="M18.1527 16.6075C18.238 16.8203 18.833 17.3164 19.029 17.2378C19.2249 17.1592 19.2871 16.3994 19.2018 16.1867C19.1164 15.9739 18.8788 15.7561 18.5259 15.9836C18.0935 16.0251 18.0673 16.3947 18.1527 16.6075Z" fill="#E8B42D"/>
<path d="M18.4093 16.4881C18.4531 16.5972 18.7538 16.8534 18.8518 16.8141C18.9498 16.7748 18.9776 16.3868 18.9338 16.2777C18.89 16.1686 18.7699 16.0562 18.5938 16.1709C18.377 16.1902 18.3655 16.379 18.4093 16.4881Z" fill="#F8F8FA"/>
<path d="M17.5429 13.0173C17.6701 13.3476 18.6436 14.1458 18.9855 14.0399C19.3274 13.934 19.5006 12.7805 19.3734 12.4502C19.2462 12.1198 18.8592 11.7711 18.2358 12.0929C17.493 12.1255 17.4157 12.687 17.5429 13.0173Z" fill="#FFF2F6"/>
<path d="M20.7664 11.7869C21.7319 13.9007 21.4005 16.4915 21.0443 16.4932C20.6881 16.4948 20.9392 14.1679 20.359 12.2961C19.7788 10.4242 18.6446 10.0795 19.0652 9.88742C19.4858 9.69531 20.3201 10.8098 20.7664 11.7869Z" fill="#FFF2F6"/>
</svg>
